<svg width="623" height="779" viewBox="0 0 623 779" fill="none" xmlns="http://www.w3.org/2000/svg">
<path d="M393.874 109.322C396.419 108.887 400.667 109.243 403.109 110.113C414.192 114.06 412.07 132.278 411.53 141.829C410.366 166.3 406.163 190.532 399.02 213.967C395.133 226.57 388.192 242.313 383.434 255.093C386.846 253.363 390.824 250.276 394.437 248.23C405.597 241.855 419.137 236.244 432.122 236.03C457.087 235.618 447.758 269.882 441.74 283.729C436.321 296.193 430.026 307.953 421.636 318.638C416.109 325.673 409.815 331.857 403.432 338.015C412.85 335.526 438.188 329.435 436.693 347.512C435.647 360.18 422.065 374.537 412.454 382.653C414.101 388.005 417.17 392.809 421.339 396.552C423.526 398.515 427.592 400.774 430.159 402.356C449.153 413.996 470.772 420.181 490.729 430.086C530.611 449.88 566.455 481.953 568.988 529.146C569.752 545.977 565.842 562.69 557.692 577.437C541.683 606.273 511.841 620.119 480.497 625.729C459.343 629.518 419.57 629.78 404.733 646.505C401.565 650.081 399.621 654.314 398.849 659.023C395.902 677.026 411.036 684.679 411.104 692.093C411.112 693.047 410.746 693.915 410.031 694.55C407.502 696.806 402.295 696.414 399.169 696.113C387.69 695.006 376.518 690.202 369.139 681.1C361.472 671.644 358.414 658.932 359.744 646.908C360.63 638.905 363.756 630.655 368.544 624.174C384.59 602.447 413.184 601.329 437.652 599.119C448.48 598.141 459.24 597.008 469.909 594.824C484.632 591.812 499.081 586.251 510.883 576.764C522.179 567.689 529.927 555.296 531.433 540.751C532.992 525.703 527.884 511.751 518.387 500.18C503.565 482.12 480.117 472.447 457.551 468.708C452.246 467.83 446.906 467.59 441.562 467.058C441.478 470.641 441.566 474.509 441.585 478.115C448.663 480.987 451.264 483.919 454.805 490.58C457.27 490.519 459.263 490.458 461.571 491.489C477.204 498.484 475.115 518.472 469.916 531.477C461.773 549.347 447.925 557.118 428.25 555.228C409.807 553.455 396.856 548.906 384.564 534.303C372.549 534.49 361.461 540.496 349.95 544.098C330.604 550.15 313.901 554.014 293.709 554.086C280.259 574.577 251.128 571.736 235.564 555.604C228.155 547.924 225.555 541.542 222.117 531.743C212.332 524.459 206.528 517.206 198.934 507.849C195.587 503.722 189.109 513.041 182.833 514.208C170.299 516.536 165.516 510.119 154.687 509.237C145.66 518.392 136.895 524.779 123.781 519.549C121.963 528.309 115.449 537.171 106.991 540.443C102.68 542.109 99.9178 542.002 95.413 541.568C92.9073 543.919 89.7999 545.532 86.4343 546.228C77.0497 548.126 71.3731 542.462 65.4443 536.605C58.6902 529.929 54.179 526.061 52.4294 516.068C49.5464 499.61 56.4264 484.292 65.1191 470.789C71.0605 461.877 80.3222 455.365 89.3842 450.009C107.311 439.412 126.27 437.427 145.924 444.277C156.882 448.096 158.653 451.801 171.092 449.458C150.011 442.406 127.115 427.187 114.581 408.511C105.552 405.415 103.055 402.957 95.7903 397.625C83.2732 388.439 62.9116 354.469 95.5583 360.478C81.928 346.621 71.7698 333.342 66.1818 314.353C60.5242 295.126 53.699 258.549 87.1752 279.472C79.2606 252.974 75.4241 226.662 76.8808 198.532C78.6532 180.225 80.8482 156.766 93.3287 142.315C97.2371 137.79 105.267 142.162 109.066 144.989C118.303 151.862 126.263 160.389 135.078 167.91C149.738 180.418 167.018 189.766 179.167 205.031C206.251 188.844 240.584 180.777 271.858 186.448C272.217 186.006 272.581 185.567 272.95 185.133C287.616 167.796 311.12 148.732 330.246 136.509C346.398 126.187 374.809 110.907 393.874 109.322Z" fill="#010101"/>
<path d="M259.248 206.552C263.506 202.496 266.597 197.044 270.478 192.595C297.953 161.102 333.018 134.687 371.612 118.482C380.256 114.852 398.324 107.396 405.859 115.45C410.279 126.897 408.822 132.411 408.141 144.16C406.559 171.585 401.39 198.899 391.862 224.7C391.76 224.883 391.657 225.067 391.558 225.251C390.261 230.324 380.669 256.151 378.285 259.06C374.146 264.109 368.578 267.994 364.372 273.109L363.224 274.842C364.707 274.587 373.14 267.268 375.095 265.75C382.94 259.66 390.74 253.048 399.892 248.951C401.55 247.959 403.82 246.93 405.6 246.067C416.17 241.493 441.303 231.047 444.677 248.622C448.138 266.495 434.598 294.065 424.709 308.659C417.285 319.498 408.563 329.388 398.739 338.107C397.028 339.643 381.768 351.685 381.643 352.034C387.77 349.673 390.505 347.154 395.772 344.269C401.774 340.981 413.044 337.808 419.764 337.567C424.64 337.393 428.771 337.781 432.468 341.135L433.814 343.677C434.784 352.744 428.729 360.249 423.397 367.033C413.447 379.694 399.96 389.173 386.29 397.423C381.091 400.557 371.405 405.422 366.847 409.047C381.513 403.41 398.545 395.16 410.366 384.62C414.01 397.861 422.644 401.383 433.734 408.188C419.198 408.275 413.869 414.494 400.698 417.59C393.574 418.686 386.412 420.089 379.328 421.455C373.869 422.505 372.22 424.076 367.947 426.97C365.883 425.099 364.105 423.886 361.843 422.296C356.696 418.75 350.092 416.369 344.031 414.856L341.186 414.137C316.481 408.846 286.875 420.812 273.529 442.037C272.369 443.882 269.702 448.138 268.218 449.469C259.247 457.449 252.453 466.141 251.625 478.625L251.446 479.5C249.111 479.142 244.43 480.344 241.727 480.561C237.461 480.907 235.278 480.496 231.054 479.747C224.231 478.67 217.717 477.29 210.79 476.27C202.331 475.81 194.332 472.782 186.204 470.603C185.08 470.302 185.072 470.26 184.208 470.82C183.696 469.401 183.094 467.023 182.659 465.506C181.719 463.071 179.944 455.601 179.166 452.691C187.134 456.069 201.345 458.986 209.993 458.929C182.256 452.257 153.772 441.744 131.796 422.904C128.4 419.994 124.433 416.278 121.806 412.661C114.175 403.665 109.984 392.969 111.674 381.132C112.015 378.744 113.493 374.292 113.177 372.062C112.161 364.882 109.627 357.831 108.993 350.538C106.862 329.441 108.37 310.662 114.766 290.464C116.498 284.995 118.936 278.951 120.446 273.597C115.87 279.548 114.221 284.88 111.808 291.865L110.86 294.605C108.549 301.961 106.867 309.5 105.831 317.14C104.724 316.305 104.048 315.779 103.568 314.521C102.835 311.582 97.3721 298.473 95.9576 294.711C90.5222 280.257 86.2871 267.434 83.959 252.049C83.2128 247.118 82.1786 242.463 81.8835 237.327C81.7884 236.695 81.6998 236.062 81.618 235.427C78.5148 211.371 79.1131 185.349 86.3323 162.036C87.6027 157.934 93.2519 142.404 98.1069 142.865C105.175 143.536 115.946 154.428 121.126 159.318C122.103 160.247 127.47 165.271 127.936 165.942C132.356 169.292 136.525 173.404 140.957 176.666C152.784 185.372 167.195 195.203 176.81 206.352C166.006 213.177 156.739 221.949 148.648 231.792C147.46 233.296 146.52 234.323 145.808 236.109C152.57 230.634 158.629 223.376 166.337 217.523C195.632 194.829 232.731 184.684 269.496 189.314C264.284 195.841 261.792 198.648 259.248 206.552Z" fill="#EFF7FB"/>
<path d="M405.859 115.45C410.279 126.897 408.822 132.411 408.141 144.16C406.559 171.585 401.39 198.899 391.862 224.7C391.76 224.883 391.657 225.067 391.558 225.251C390.261 230.324 380.669 256.151 378.285 259.06C374.146 264.109 368.578 267.994 364.372 273.109L363.99 272.234C363.433 273.195 363.495 273.163 362.616 273.827C362.038 272.751 363.112 269.967 363.495 268.577L363.126 268.888L363.509 269.133L362.941 269.242C362.364 270.24 361.883 271.663 361.465 272.766C360.377 271.684 359.14 270.674 358.571 269.299C358.692 266.204 356.51 263.929 354.587 261.76C358.27 258.423 358.797 253.944 359.335 249.253C360.458 239.459 360.408 229.646 360.001 219.817C359.843 215.983 358.061 209.489 358.854 205.908C361.145 195.565 367.052 186.074 371.319 176.484C375.55 170.692 377.491 166.569 380.562 160.159C381.494 158.529 382.438 156.906 383.392 155.291C386.268 150.446 390.238 146.564 395.875 145.125C396.027 143.486 395.419 139.379 394.787 137.78C394.928 137.699 395.286 137.266 395.415 137.12L395.137 136.368L394.129 135.951L394.376 135.684C400.903 128.53 401.112 121.405 405.859 115.45Z" fill="#ADC8E1"/>
<path d="M363.99 272.234C367.882 267.512 374.119 262.951 377.723 258.397C381.715 253.352 383.51 243.435 385.332 237.449C386.386 233.982 389.592 228.881 391.029 225.201L391.558 225.251C390.261 230.324 380.669 256.151 378.285 259.06C374.146 264.109 368.578 267.994 364.372 273.109L363.99 272.234Z" fill="#EFF7FB"/>
<path d="M394.377 135.684C395.346 135.694 395.928 135.492 396.636 136.406C398.868 139.293 398.241 148.367 397.75 151.724C397.693 152.134 397.628 152.544 397.56 152.952C396.784 150.394 396.217 147.776 395.875 145.125C396.027 143.486 395.419 139.379 394.787 137.78C394.928 137.699 395.286 137.266 395.415 137.12L395.137 136.368L394.129 135.951L394.377 135.684Z" fill="#3E5688"/>
<path d="M394.787 137.78C395.419 139.379 396.027 143.486 395.875 145.125C390.238 146.564 386.268 150.446 383.392 155.291C382.438 156.906 381.494 158.529 380.562 160.159C377.491 166.569 375.55 170.691 371.319 176.484C367.052 186.074 361.145 195.565 358.854 205.908C358.061 209.489 359.843 215.983 360.001 219.817C360.408 229.646 360.458 239.459 359.335 249.253C358.797 253.944 358.27 258.423 354.587 261.76C353.384 260.731 351.663 258.907 350.49 257.728C349.59 256.887 348.649 256.092 347.67 255.346C339.18 248.812 324.7 243.449 313.811 244.902C318.707 233.81 323.596 221.854 330.292 211.485C345.391 188.1 363.911 165.115 384.45 146.276C386.929 144 391.98 139.339 394.787 137.78Z" fill="#779EC8"/>
<path d="M371.319 176.484C372.248 171.401 376.718 163.581 380.563 160.159C377.491 166.569 375.55 170.692 371.319 176.484Z" fill="#A2BFDB"/>
<path d="M433.814 343.677C434.784 352.744 428.729 360.249 423.397 367.033C413.447 379.694 399.96 389.173 386.29 397.423C381.091 400.557 371.405 405.422 366.847 409.047C381.513 403.41 398.545 395.16 410.366 384.62C414.01 397.861 422.643 401.383 433.734 408.188C419.198 408.275 413.869 414.494 400.698 417.59C393.574 418.686 386.412 420.089 379.328 421.455C373.869 422.505 372.22 424.076 367.947 426.97C365.883 425.099 364.105 423.886 361.843 422.296C356.696 418.751 350.092 416.369 344.031 414.856C348.67 411.349 352.955 406.434 356.815 402.037C362.707 393.273 363.53 393.281 373.381 388.891C378.294 384.863 388.854 379.938 395.08 378.593C398.321 376.706 401.428 374.599 404.379 372.285C408.244 371.282 415.744 364.735 418.734 361.795C422.05 358.53 432.395 347.603 433.814 343.677Z" fill="#A2BFDB"/>
<path d="M373.381 388.891C378.294 384.863 388.854 379.938 395.08 378.593C391.239 382.227 378.199 388.823 373.381 388.891Z" fill="#FAFCFD"/>
<path d="M121.806 412.661L122.392 411.87C125.546 412.828 128.635 417.446 131.464 419.66C133.636 421.364 135.115 422.798 137.664 424.304C145.37 428.857 153.653 433.821 161.832 437.385C166.79 439.545 172.166 441.143 177.208 442.995C181.748 443.516 187.248 445.875 191.822 446.993C203 449.728 214.133 451.413 225.603 452.193C232.388 452.805 255.628 449.416 258.966 451.249C262.014 450.386 265.095 449.96 268.218 449.469C259.247 457.449 252.453 466.141 251.625 478.625L251.446 479.5C249.111 479.142 244.43 480.344 241.727 480.561C237.461 480.907 235.278 480.496 231.054 479.747C224.231 478.67 217.717 477.29 210.79 476.27C202.33 475.81 194.332 472.782 186.204 470.603C185.08 470.302 185.072 470.26 184.208 470.82C183.696 469.401 183.094 467.023 182.659 465.506C181.719 463.071 179.944 455.601 179.166 452.691C187.134 456.069 201.345 458.986 209.993 458.929C182.256 452.257 153.771 441.744 131.796 422.904C128.4 419.994 124.433 416.278 121.806 412.661Z" fill="#A2BFDB"/>
<path d="M177.208 442.995C181.748 443.516 187.248 445.875 191.822 446.993C203 449.728 214.133 451.413 225.603 452.193C232.388 452.805 255.628 449.416 258.966 451.249C256.444 451.82 253.912 452.345 251.369 452.82C245.016 453.958 240.846 453.669 234.765 453.828C219.414 454.232 204.152 452.497 189.447 447.982C184.753 446.54 181.371 445.882 177.208 442.995Z" fill="#C2D6E9"/>
<path d="M182.659 465.506C185.479 465.403 190.02 468.534 192.879 469.58C198.777 471.736 204.811 474.387 210.79 476.27C202.33 475.81 194.332 472.782 186.204 470.603C185.08 470.302 185.072 470.26 184.208 470.82C183.696 469.401 183.094 467.023 182.659 465.506Z" fill="#FAFCFD"/>
<path d="M231.054 479.747C236.534 479.15 242.05 478.876 247.55 478.062C249.373 477.792 250.319 477.586 251.625 478.625L251.446 479.5C249.111 479.142 244.43 480.344 241.727 480.561C237.461 480.907 235.278 480.496 231.054 479.747Z" fill="#FAFCFD"/>
<path d="M444.677 248.622C448.138 266.495 434.598 294.065 424.709 308.659C417.284 319.498 408.563 329.388 398.739 338.107C397.027 339.643 381.768 351.685 381.643 352.034C380.593 353.056 363.762 357 361.886 356.233C362.111 355.253 362.308 354.82 363.176 354.18C387.021 336.609 407.103 314.19 424.218 290.114C430.471 281.318 434.773 272.328 439.595 262.719C441.718 258.487 442.315 252.565 444.677 248.622Z" fill="#A2BFDB"/>
<path d="M125.653 165.482L125.851 164.887C126.56 165.611 126.928 165.969 127.703 166.611L127.936 165.942C132.356 169.292 136.525 173.404 140.957 176.666C152.784 185.372 167.195 195.203 176.81 206.352C166.006 213.177 156.739 221.949 148.648 231.792C146.5 225.994 146.656 220.935 145.469 214.939C142.752 201.231 139.044 188.01 132.146 175.765C129.43 170.944 130.319 169.236 125.653 165.482Z" fill="#A2BFDB"/>
<path d="M81.8834 237.327L82.4448 237.397C82.4037 236.177 81.958 235.124 82.2558 234.289C83.4288 237.694 88.0423 250.85 88.4439 254.002C95.0045 264.745 99.8439 276.568 107.771 286.61C109.018 288.19 110.234 290.689 111.808 291.865L110.86 294.605C108.549 301.961 106.867 309.5 105.831 317.14C104.724 316.305 104.047 315.78 103.568 314.521C102.835 311.582 97.3721 298.473 95.9576 294.712C90.5221 280.257 86.287 267.434 83.9589 252.049C83.2127 247.118 82.1786 242.463 81.8834 237.327Z" fill="#A2BFDB"/>
<path d="M88.444 254.002C95.0045 264.745 99.844 276.568 107.771 286.61C109.018 288.19 110.235 290.689 111.808 291.865L110.86 294.605C110.585 294.434 110.345 294.305 110.139 294.056C104.178 286.842 89.0917 262.541 88.444 254.002Z" fill="#C2D6E9"/>
<path d="M394.129 135.951L395.137 136.368L395.415 137.12C395.286 137.266 394.928 137.699 394.787 137.78C391.98 139.339 386.929 144 384.45 146.276C363.912 165.115 345.391 188.1 330.292 211.485C323.596 221.854 318.707 233.81 313.811 244.902C324.7 243.449 339.18 248.812 347.67 255.346C348.649 256.092 349.591 256.887 350.49 257.728C350.334 258.517 350.132 259.818 349.838 260.502C341.588 254.257 341.611 253.453 331.028 249.7C329.808 250.424 328.586 250.644 327.18 250.496C323.617 250.121 314.44 251.391 311.738 249.452C310.193 244.56 316.099 232.831 318.436 228.025C323.713 216.95 329.945 206.355 337.062 196.362C340.971 190.76 345.67 185.204 350.032 179.926C361.606 165.921 379.025 146.14 394.129 135.951Z" fill="#06090C"/>
<path d="M311.738 249.452C312.479 248.28 312.881 247.327 314.209 247.037C318.937 246.006 326.319 248.27 331.028 249.699C329.808 250.424 328.586 250.644 327.18 250.496C323.617 250.121 314.441 251.391 311.738 249.452Z" fill="#C2D6E9"/>
<path d="M399.891 248.951L400.637 249.301C401.337 248.986 401.934 248.597 402.634 248.599C401.093 249.843 399.652 253.267 397.461 255.31C393.513 258.991 376.212 271.222 374.653 275.681C371.664 277.922 357.768 289.275 354.682 287.809C354.429 285.58 361.19 276.113 363.223 274.842C364.707 274.587 373.14 267.268 375.095 265.75C382.94 259.66 390.74 253.048 399.891 248.951Z" fill="#A2BFDB"/>
<path d="M125.653 165.482C130.319 169.236 129.43 170.944 132.146 175.765C139.044 188.01 142.752 201.231 145.469 214.939C146.656 220.935 146.5 225.994 148.648 231.792C147.46 233.296 146.52 234.323 145.808 236.109C145.629 236.278 145.396 236.267 145.077 236.337C142.693 234.825 143.495 227.591 143.339 224.464C142.47 207.051 136.766 187.255 128.017 172.288C127.632 169.274 126.956 168.24 125.653 165.482Z" fill="#C2D6E9"/>
<path d="M399.892 248.951C401.55 247.959 403.82 246.93 405.6 246.067C405.878 248.041 404.806 249.688 403.729 251.124C400.036 256.056 379.19 273.572 374.654 275.681C376.212 271.222 393.513 258.991 397.461 255.31C399.652 253.267 401.093 249.843 402.634 248.599C401.934 248.597 401.337 248.986 400.637 249.301L399.892 248.951Z" fill="#C2D6E9"/>
<path d="M432.468 341.135L433.814 343.678C432.396 347.603 422.05 358.53 418.734 361.795C415.744 364.735 408.244 371.282 404.38 372.285C411.389 363.643 429.961 351.339 432.468 341.135Z" fill="#FAFCFD"/>
<path d="M341.186 414.137C344.708 410.036 351.517 403.292 356.815 402.037C352.955 406.434 348.67 411.348 344.031 414.856L341.186 414.137Z" fill="#FAFCFD"/>
<path d="M350.49 257.728C351.663 258.907 353.384 260.731 354.587 261.76C356.51 263.929 358.692 266.204 358.571 269.299C356.066 266.067 352.889 263.24 349.838 260.502C350.132 259.818 350.334 258.517 350.49 257.728Z" fill="#3A4A5D"/>
<path d="M121.126 159.318C122.103 160.247 127.47 165.271 127.936 165.942L127.703 166.611C126.928 165.969 126.56 165.611 125.851 164.887L125.653 165.482C126.956 168.24 127.632 169.274 128.017 172.288C125.769 169.475 120.852 162.751 121.126 159.318Z" fill="#FAFCFD"/>
<path d="M214.345 207.853C228.933 206.709 239.229 217.158 239.318 231.61C239.507 262.254 207.305 288.287 179.815 295.379C174.405 296.775 170.753 297.141 165.125 297.39C159.01 297.005 150.931 294.843 145.736 291.547C141.061 283.123 137.565 277.936 140.458 267.87C149.679 235.789 181.355 210.666 214.345 207.853Z" fill="#FAFCFD"/>
<path d="M259.769 307.843C270.142 306.399 283.046 311.116 287.166 321.182C299.796 352.039 282.487 380.592 250.749 386.362C240.537 387.883 231.258 386.548 221.631 382.977C221.354 381.858 221.123 380.729 220.937 379.591C216.747 352.868 229.51 312.593 259.769 307.843Z" fill="#010101"/>
<path d="M223.745 381.109C219.581 356.528 229.692 320.59 255.556 311.607C268.029 307.275 282.733 313.446 285.945 327.008C288.985 339.846 290.083 348.178 283.645 360.291C277.278 371.837 268.126 378.626 255.478 382.239C254.15 382.619 252.805 382.931 251.447 383.182L248.358 383.711C239.921 384.825 231.745 384.163 223.745 381.109Z" fill="#263657"/>
<path d="M230.786 352.581C231.517 352.084 232.238 351.573 232.948 351.047C241.941 344.384 242.463 334.221 244.045 323.792C247.622 336.064 250.183 344.967 262.919 349.635C253.992 355.094 250.701 362.128 249.343 372.44C249.111 374.041 248.858 376.107 248.536 377.667L247.458 373.882C246.801 372.034 246.104 370.201 245.366 368.384C242.086 360.348 238.709 355.898 230.786 352.581Z" fill="#FAFCFD"/>
<path d="M249.343 372.44C249.386 372.432 264.129 364.217 264.647 363.743C269.531 359.271 281.828 340.061 283.645 360.291C277.278 371.837 268.126 378.625 255.478 382.239C254.15 382.619 252.805 382.931 251.447 383.182C250.744 382.817 250.019 382.615 249.264 382.357C248.129 381.021 248.68 380.282 248.566 378.169L248.536 377.667C248.858 376.107 249.111 374.041 249.343 372.44Z" fill="#3E5688"/>
<path d="M247.458 373.882L248.536 377.667L248.566 378.169C248.68 380.282 248.129 381.022 249.263 382.357C250.019 382.615 250.744 382.817 251.447 383.182L248.358 383.711C244.846 381.044 242.228 376.19 247.458 373.882Z" fill="#354973"/>
<path d="M269.047 317.255C272.016 322.532 270.56 323.925 277.236 327.581C277.057 327.687 276.88 327.797 276.705 327.91C272.436 330.691 272.074 334.413 271.089 339.019C268.394 334.186 269.463 331.258 263.113 328.675C267.884 325.065 267.965 322.756 269.047 317.255Z" fill="#FAFCFD"/>
<path d="M131.639 319.959C154.79 317.777 170.44 369.483 170.089 387.568C165.647 390.055 164.23 390.82 159.21 391.292C141.729 391.273 132.354 382.505 125.57 366.806C120.201 354.386 115.669 326.721 131.639 319.959Z" fill="#010101"/>
<path d="M129.986 369.79C124.369 360.394 121.818 343.689 124.375 333.088C125.763 327.333 129.897 320.747 136.845 322.948C144.267 325.298 150.95 335.304 154.646 341.826C162.41 357.077 166.126 369.056 167.93 385.97C162.835 387.998 160.55 388.515 155.033 388.454C144.061 387.746 136.473 380.999 131.075 371.871L129.986 369.79Z" fill="#263657"/>
<path d="M131.075 371.871C132.521 365.343 139.009 369.386 142.972 371.145C145.597 373.546 154.62 383.483 157.329 383.277L157.839 383.947C157.511 387.001 157.25 386.217 155.033 388.454C144.061 387.747 136.473 380.999 131.075 371.871Z" fill="#3E5688"/>
<path d="M155.739 365.598C157.221 369.577 158.285 372.481 162.287 374.539C158.727 377.966 158.563 379.065 157.839 383.947L157.329 383.277C156.022 379.797 155.211 377.658 151.933 375.526C151.911 374.217 153.75 373.147 154.328 371.684C155.046 369.865 155.374 367.511 155.739 365.598Z" fill="#FAFCFD"/>
<path d="M131.572 365.609C136.784 366.937 139.271 367.044 142.972 371.145C139.008 369.386 132.521 365.343 131.075 371.871L129.986 369.79C130.779 368.228 131.057 367.251 131.572 365.609Z" fill="#354973"/>
<path d="M139.26 330.346C142.752 333.078 140.47 342.872 153.338 350.185C152.613 350.743 151.904 351.322 151.212 351.92C145.965 356.548 145.231 363.365 144.801 369.921L144.622 370.223C142.037 368.095 143.49 358.542 131.559 351.231C131.803 351.015 132.044 350.795 132.283 350.573C138.368 344.935 138.948 338.127 139.26 330.346Z" fill="#FAFCFD"/>
<path d="M433.734 408.188C447.48 415.046 460.834 420.318 475.062 426.221C510.636 441.044 548.145 466.959 561.366 504.806C568.923 526.434 567.082 552.565 556.87 572.949C538.983 608.639 500.872 620.823 464.089 624.984C444.281 628.506 413.626 628.578 400.443 646.878C395.871 653.23 394.517 661.732 396.008 669.392C396.693 672.914 397.944 676.304 399.717 679.426C401.47 682.53 407.997 690.096 407.886 692.256C404.612 695.227 389.679 692.074 386.078 689.875C358.252 678.107 355.573 639.898 376.246 620.168C391.509 605.6 414.466 604.204 434.476 602.519C442.79 601.873 451.082 600.96 459.335 599.781C476.002 597.289 488.363 593.794 503.128 585.985C503.622 585.479 508.194 582.664 509.13 582.04C512.119 580.028 514.937 577.772 517.558 575.3C527.842 565.486 535.274 550.751 535.111 536.327C534.559 488.4 482.928 464.988 441.299 464.357C439.778 446.955 434.172 434.22 424.971 419.542C424.275 418.663 423.876 417.838 422.955 417.552C423.419 419.462 427.189 426.643 428.292 428.952C432.818 438.439 436.142 447.316 437.698 457.75C438.808 465.376 439.063 473.106 438.458 480.793C438.245 483.357 436.602 492.47 436.842 493.847L437.405 494.003C439.652 492.269 440.482 484.034 441.402 480.96C442.92 481.911 444.437 482.767 445.757 483.969C455.064 491.261 454.296 501.462 457.289 510.933C458.293 504.258 457.304 499.07 455.421 492.584C471.43 496.476 473.594 511.131 470.057 525.342L469.962 525.715C463.998 523.874 463.199 521.679 458.342 518.324C461.442 523.368 463.23 525.859 469.563 526.662C467.737 532.5 464.196 539.678 459.172 543.421C454.497 543.501 450.325 543.2 446.396 539.925C445.232 538.955 442.95 535.338 441.76 534.787L441.413 535.266C442.071 537.963 445.373 541.527 447.799 542.881C451.709 545.06 454.543 545.079 458.772 544.775C434.335 562.303 429.204 545.479 426.337 546.867C426.39 549.838 432.536 552.626 434.978 553.839C427.048 553.775 422.423 553.383 416.478 547.331C415.413 546.251 412.374 542.55 411.264 542.211C410.568 544.25 417.205 550.146 419 551.568C403.254 547.514 391.897 541.34 383.236 526.833C379.932 521.299 378.401 516.913 373.137 512.995C375.914 518.948 379.101 525.038 382.073 530.914C371.224 532.809 361.833 536.586 351.554 540.355C310.976 555.25 263.398 556.627 226.615 531.241C211.304 520.671 200.905 505.848 192.148 489.686C188.636 484.323 185.928 476.993 184.208 470.82C185.072 470.26 185.08 470.302 186.204 470.603C194.332 472.782 202.331 475.81 210.79 476.27C217.717 477.29 224.231 478.67 231.054 479.747C235.278 480.496 237.461 480.907 241.727 480.561C244.43 480.344 249.111 479.142 251.446 479.5L251.625 478.625C252.454 466.141 259.247 457.449 268.218 449.469C269.702 448.138 272.369 443.882 273.529 442.037C286.875 420.812 316.481 408.846 341.186 414.137L344.031 414.856C350.092 416.369 356.696 418.751 361.843 422.296C364.105 423.886 365.883 425.099 367.947 426.97C372.22 424.076 373.869 422.505 379.328 421.455C386.412 420.089 393.574 418.686 400.698 417.59C413.869 414.494 419.198 408.275 433.734 408.188Z" fill="#EFF7FB"/>
<path d="M397.476 457.917C399.458 468.598 399.427 476.08 393.114 485.844C389.767 491.025 383.621 495.179 380.935 500.062C384.453 514.182 388.637 523.014 401.272 531.299C417.585 541.991 436.374 531.553 446.073 517.08C449.054 512.63 451.264 500.926 448.762 496.084C449.237 494.539 449.526 491.858 449.762 490.154C449.058 488.88 448.602 487.765 447.48 486.886C446.601 485.764 446.396 485.266 445.757 483.969C455.064 491.261 454.296 501.462 457.289 510.933C458.293 504.258 457.304 499.07 455.421 492.584C471.43 496.476 473.594 511.131 470.057 525.342L469.962 525.715C463.998 523.874 463.199 521.679 458.342 518.324C461.442 523.368 463.23 525.859 469.563 526.662C467.737 532.501 464.196 539.678 459.172 543.421C454.497 543.501 450.325 543.2 446.396 539.925C445.232 538.955 442.95 535.338 441.76 534.787L441.413 535.266C442.071 537.963 445.373 541.527 447.799 542.881C451.709 545.06 454.543 545.079 458.772 544.775C434.335 562.303 429.204 545.479 426.337 546.867C426.39 549.838 432.536 552.626 434.978 553.839C427.048 553.775 422.423 553.383 416.478 547.331C415.413 546.251 412.374 542.55 411.264 542.211C410.568 544.25 417.205 550.146 419 551.569C403.254 547.514 391.897 541.34 383.236 526.833C379.932 521.299 378.401 516.913 373.137 512.995C375.914 518.948 379.101 525.038 382.073 530.914C371.224 532.809 361.833 536.586 351.554 540.355C310.976 555.251 263.398 556.627 226.615 531.242C211.304 520.671 200.905 505.848 192.148 489.686C188.636 484.323 185.928 476.993 184.208 470.82C185.072 470.26 185.08 470.302 186.204 470.603C194.332 472.782 202.331 475.81 210.79 476.27C217.717 477.29 224.231 478.67 231.054 479.747C235.278 480.496 237.461 480.907 241.727 480.561C244.43 480.344 249.111 479.142 251.446 479.5C251.964 486.335 253.026 491.5 259.259 495.452C262.312 496.875 264.594 497.381 267.868 498.031C268.63 499.066 269.406 500.085 270.195 501.101C274.742 506.886 279.351 509.659 286.65 510.565C294.129 519.241 303.463 524.939 315.524 521.656C320.485 520.306 325.256 516.232 327.635 511.66C337.722 522.314 353.273 520.968 361.17 508.59C364.591 503.227 365.306 498.689 366.245 492.577C368.738 490.667 369.592 489.77 371.735 487.427C389.752 487.217 397.423 474.775 397.476 457.917Z" fill="#A1BFDC"/>
<path d="M184.208 470.82C185.072 470.26 185.08 470.302 186.204 470.603C194.332 472.782 202.331 475.81 210.79 476.27C217.717 477.29 224.231 478.67 231.054 479.747C235.278 480.496 237.461 480.907 241.727 480.561C244.43 480.344 249.111 479.142 251.446 479.5C251.964 486.335 253.026 491.5 259.259 495.452C261.269 500.831 276.474 512.949 281.183 517.385C283.717 519.773 286.261 523.212 288.606 525.521C278.165 528.434 269.265 526.696 259.728 527.137C234.959 523.322 217.685 513.615 199.655 496.118C197.216 493.752 195.437 490.321 192.148 489.686C188.636 484.323 185.928 476.993 184.208 470.82Z" fill="#EFF7FB"/>
<path d="M288.606 525.521L289.824 526.434C289.775 532.968 263.879 530.675 259.728 527.137C269.265 526.696 278.165 528.434 288.606 525.521Z" fill="#C2D6E9"/>
<path d="M424.971 419.542L425.614 418.617C444.426 421.508 472.016 435.171 487.496 446.335L487.397 445.601C489.416 446.095 493.809 449.69 495.692 451.044C518.246 467.373 533.372 484.463 541.896 511.413C557.726 561.473 523.396 606.909 475.154 619.043C473.05 619.571 459.426 623.493 458.498 624.767L458.879 625.026L459.468 624.908C462.42 624.334 461.507 624.664 464.089 624.984C444.281 628.506 413.626 628.578 400.443 646.878C395.871 653.23 394.517 661.732 396.008 669.392C396.693 672.914 397.944 676.304 399.716 679.426C401.47 682.53 407.997 690.096 407.886 692.256C404.612 695.227 389.679 692.074 386.077 689.875C358.252 678.107 355.572 639.898 376.246 620.168C391.509 605.6 414.466 604.204 434.476 602.519C442.79 601.873 451.082 600.96 459.335 599.781C476.002 597.289 488.363 593.794 503.128 585.985C503.622 585.479 508.194 582.664 509.129 582.04C512.119 580.028 514.937 577.772 517.558 575.3C527.842 565.486 535.274 550.751 535.111 536.327C534.559 488.4 482.928 464.988 441.299 464.357C439.778 446.955 434.172 434.22 424.971 419.542Z" fill="#A2BFDB"/>
<path d="M503.128 585.984C502.314 588.252 499.385 587.936 498.499 589.636C498.468 590.91 498.248 590.971 498.815 591.823C500.56 590.701 502.139 589.674 503.816 588.457C503.71 589.29 503.432 589.415 502.504 590.047C494.772 595.33 485.594 600.633 476.701 603.561C449.537 612.515 416.299 609.297 393.323 628.575C388.843 632.337 385.26 637.426 381.996 642.219L381.939 642.595C381.468 645.49 380.54 648.529 379.956 651.481C378.138 660.682 378.389 668.095 380.303 677.159C381.03 679.229 386.081 689.236 386.077 689.875C358.252 678.107 355.572 639.898 376.246 620.168C391.509 605.6 414.466 604.204 434.476 602.519C442.79 601.873 451.082 600.96 459.335 599.781C476.002 597.289 488.363 593.794 503.128 585.984Z" fill="#EFF7FB"/>
<path d="M381.996 642.219L381.939 642.595C381.468 645.49 380.54 648.529 379.956 651.481C378.138 660.682 378.389 668.095 380.303 677.159C377.1 675.014 375.636 669.894 375.203 666.243C374.238 657.654 376.678 649.027 381.996 642.219Z" fill="#FAFCFD"/>
<path d="M268.218 449.469C269.702 448.138 272.369 443.882 273.529 442.037C286.875 420.812 316.481 408.846 341.186 414.137L344.031 414.856C350.092 416.369 356.696 418.75 361.843 422.296C360.845 424.205 360.978 423.977 358.644 423.532C341.275 415.38 324.985 413.619 306.583 420.067C290.805 425.597 277.889 437.921 270.562 452.874C265.626 462.942 263.423 477.377 267.128 488.309C272.463 491.542 272.978 496.761 281.144 494.863C281.043 493.299 280.649 489.298 281.299 488.111C281.616 483.261 282.027 481.964 284.039 477.605C283.227 487.354 282.675 494.764 286.763 504.129C288.74 504.627 292.15 507.012 294.275 508.084C294.555 508.225 294.838 508.358 295.124 508.488C299.852 510.599 305.497 510.564 310.478 509.207C315.284 507.898 319.105 502.927 323.081 501.687C322.867 499.02 322.76 498.085 323.149 495.475C323.445 496.536 323.799 497.986 324.181 498.982C326.401 500.302 327.587 501.07 329.999 501.941C331.348 501.755 332.598 501.188 334.098 501.101C341.309 500.675 346.866 495.445 353.413 493.573C358.247 486.331 359.123 482.516 359.77 474.174C366.335 471.812 371.633 462.923 373.717 456.578L373.329 454.684L373.666 454.361C375.082 456.263 375.718 458.336 376.328 460.595C378.191 460.82 378.292 461.052 379.349 462.699C381.985 463.798 383.525 464.41 386.382 464.715C387.469 464.832 389.523 464.905 390.425 465.205C392.543 462.303 392.612 459.705 395.354 458.678C395.552 455.491 395.259 451.223 395.13 447.955C396.678 451.911 396.944 453.657 397.476 457.917C397.423 474.775 389.752 487.217 371.735 487.426C369.592 489.77 368.738 490.667 366.245 492.577C365.306 498.689 364.591 503.227 361.17 508.59C353.273 520.968 337.722 522.314 327.634 511.66C325.256 516.232 320.484 520.306 315.524 521.656C303.463 524.939 294.129 519.241 286.65 510.565C279.351 509.659 274.742 506.886 270.195 501.101C269.406 500.085 268.63 499.066 267.868 498.031C264.594 497.381 262.312 496.875 259.259 495.452C253.026 491.5 251.964 486.335 251.446 479.5L251.625 478.625C252.453 466.141 259.247 457.449 268.218 449.469Z" fill="#010101"/>
<path d="M373.717 456.578C377.115 466.586 374.198 481.801 366.26 489.134C365.464 483.84 365.264 482.733 362.775 478.058C363.841 487.887 363.857 500.979 357.041 508.621C344.804 522.345 328.639 514.714 324.181 498.982C326.401 500.302 327.587 501.07 329.999 501.941C331.349 501.755 332.598 501.188 334.098 501.101C341.309 500.675 346.866 495.445 353.413 493.573C358.247 486.331 359.123 482.516 359.77 474.174C366.335 471.812 371.633 462.923 373.717 456.578Z" fill="#A2BFDB"/>
<path d="M329.999 501.941C331.348 501.755 332.598 501.188 334.098 501.101C341.308 500.675 346.866 495.445 353.413 493.573C350.334 497.571 343.064 502.249 337.928 502.691C334.554 502.976 333.352 502.657 329.999 501.941Z" fill="#FAFCFD"/>
<path d="M323.081 501.687C323.917 505.281 324.555 506.902 326.352 510.15C321.19 515.228 316.548 519.518 308.881 519.461C302.634 519.363 296.677 516.81 292.295 512.356C290.056 510.07 288.09 507.038 286.763 504.129C288.74 504.627 292.15 507.012 294.275 508.085C294.555 508.225 294.838 508.358 295.124 508.488C299.852 510.599 305.497 510.565 310.478 509.207C315.284 507.898 319.105 502.927 323.081 501.687Z" fill="#A2BFDB"/>
<path d="M395.354 458.678C393.137 473.189 389.831 482.364 373.686 484.273C377.125 476.232 378.563 469.325 376.329 460.595C378.191 460.82 378.292 461.052 379.349 462.699C381.985 463.798 383.525 464.41 386.382 464.715C387.47 464.833 389.523 464.905 390.425 465.205C392.543 462.303 392.612 459.705 395.354 458.678Z" fill="#A2BFDB"/>
<path d="M379.349 462.699C381.985 463.798 383.525 464.41 386.382 464.715C387.47 464.833 389.523 464.905 390.425 465.205C386.983 468.454 381.958 465.772 379.349 462.699Z" fill="#FAFCFD"/>
<path d="M281.144 494.863C281.043 493.299 280.649 489.298 281.299 488.111C281.442 496.27 281.687 499.83 285.043 507.51C277.568 504.889 272.68 501.219 269.196 493.866C268.347 492.078 267.655 490.218 267.128 488.309C272.463 491.542 272.978 496.761 281.144 494.863Z" fill="#A2BFDB"/>
<path d="M266.541 454.338C263.363 464.231 262.399 469.401 262.48 479.952L262.364 482.877L261.898 482.965C259.734 481.105 256.925 478.735 254.972 476.704C256.582 467.023 259.921 461.641 266.541 454.338Z" fill="#FAFCFD"/>
<path d="M254.973 476.704C256.926 478.735 259.734 481.105 261.898 482.965L262.364 482.877L262.48 479.952C263.141 485.578 264.031 489.686 266.193 494.886C256.454 492.063 254 486.297 254.973 476.704Z" fill="#A2BFDB"/>
<path d="M367.947 426.97C372.22 424.076 373.869 422.505 379.328 421.455C386.412 420.089 393.574 418.686 400.698 417.59C393.285 421.497 382.647 422.402 374.642 425.243C373.175 425.765 370.856 427.282 369.259 428.089L367.947 426.97Z" fill="#FAFCFD"/>
<path d="M294.275 508.084C305.327 509.138 314.19 507.856 322.333 499.112C322.373 499.066 322.198 496.171 322.715 495.178L323.149 495.475C322.76 498.085 322.867 499.02 323.081 501.687C319.105 502.927 315.284 507.898 310.478 509.207C305.497 510.564 299.852 510.599 295.124 508.488C294.838 508.358 294.555 508.225 294.275 508.084Z" fill="#FAFCFD"/>
<path d="M361.843 422.296C364.105 423.886 365.883 425.099 367.947 426.97L369.259 428.089C373.343 431.835 375.794 435.806 378.67 440.451C371.048 432.277 368.366 429.173 358.644 423.532C360.978 423.977 360.845 424.205 361.843 422.296Z" fill="#26292F"/>
<path d="M447.48 486.886C448.602 487.765 449.058 488.879 449.762 490.154C449.526 491.858 449.237 494.539 448.762 496.084C447.373 491.641 446.286 489.834 443.977 485.867C445.198 486.639 445.612 487.369 447.096 487.742L447.48 486.886Z" fill="#FAFCFD"/>
<path d="M324.499 470.382C325.563 471.896 323.763 481.995 323.459 484.836C321.421 481.303 322.58 473.813 324.499 470.382Z" fill="#010101"/>
<path d="M291.254 460.93C291.451 462.132 287.127 470.181 286.203 472.143C285.634 468.701 288.843 463.277 291.254 460.93Z" fill="#010101"/>
<path d="M56.0731 518.145C48.6918 480.393 84.8281 445.019 121.163 443.17C131.186 442.657 141.463 445.259 150.614 449.154L158.82 452.01C162.602 457.537 167.849 467.001 170.041 473.357C169.419 476.658 169.183 477.651 167.135 480.39C166.192 482.044 165.138 484.228 163.73 485.395L163.002 485.319L162.442 484.171L162.159 481.949C161.354 478.393 160.749 477.179 158.922 474.022C159.02 475.361 159.288 477.054 159.463 478.416C160.554 490.272 159.121 498.343 151.245 507.997C145.1 515.528 132.017 522.596 122.986 515.334C118.315 511.576 117.526 504.285 118.174 498.579C119.896 491.154 121.47 488.693 126.355 482.763C116.566 488.248 114.053 497.446 115.43 507.997C116.827 512.714 117.728 514.984 121.346 518.305C118.857 526.255 115.484 532.953 107.715 537.016C95.853 543.212 84.6687 533.961 82.7217 521.938C80.7139 512.371 82.8476 505.624 84.8471 496.342C80.2217 505.996 77.2304 515.441 80.8292 526.262C77.651 527.856 74.5231 529.903 71.1046 528.746C69.6829 528.263 65.6303 526.498 64.7042 526.521C61.5401 513.06 62.7892 508.541 67.5716 495.833C62.5788 503.433 60.8258 507.849 60.471 517.069C58.9424 519.218 58.6309 518.621 56.0731 518.145Z" fill="#EFF7FB"/>
<path d="M115.43 507.997C116.827 512.714 117.728 514.984 121.346 518.305C118.857 526.255 115.484 532.953 107.715 537.016C95.853 543.212 84.6686 533.961 82.7217 521.938C86.5308 522.329 90.3639 522.432 94.1886 522.253C101.597 520.682 107.502 514.657 111.455 513.611C114.227 511.128 113.348 510.329 115.43 507.997Z" fill="#A2BFDB"/>
<path d="M94.1886 522.253C101.597 520.682 107.502 514.657 111.455 513.611C107.598 519.108 101.041 523.155 94.1886 522.253Z" fill="#FAFCFD"/>
<path d="M159.463 478.416C160.554 490.272 159.121 498.343 151.245 507.997C145.1 515.528 132.017 522.596 122.986 515.334C118.315 511.576 117.526 504.285 118.174 498.579C118.638 499.275 119.119 499.956 119.617 500.629C128.573 512.55 148.123 498.123 153.216 489.066C154.445 486.883 157.959 479.503 159.463 478.416Z" fill="#A2BFDB"/>
<path d="M150.614 449.154L158.82 452.01C162.602 457.537 167.849 467.001 170.041 473.357C169.419 476.658 169.183 477.651 167.135 480.39C167.854 475.525 167.338 473.136 164.951 468.948C162.864 462.756 159.727 458.499 155.084 453.988C153.57 452.516 151.702 450.888 150.614 449.154Z" fill="#C2D6E9"/>
<path d="M164.951 468.948C167.338 473.136 167.854 475.525 167.135 480.39C166.192 482.044 165.138 484.228 163.73 485.395L163.002 485.319L162.442 484.171L162.159 481.949C166.825 479.26 165.383 473.535 164.951 468.948Z" fill="#FAFCFD"/>
<path d="M92.3809 485.715C92.174 486.97 88.1682 491.683 87.0413 493.231C86.2559 490.447 90.2902 487.096 92.3809 485.715Z" fill="#010101"/>
<path d="M68.9005 312.297C64.7361 297.912 56.4264 263.561 84.0396 280.517C89.0967 283.623 89.8539 289.398 92.3075 294.368C95.4902 301.498 98.698 308.331 103.568 314.521C104.048 315.779 104.724 316.305 105.831 317.14C104.693 327.779 104.993 333.318 105.418 343.724C105.872 347.367 106.011 350.911 106.643 354.535C107.706 360.624 109.372 366.715 110.947 372.698C106.723 384.742 107.743 393.555 112.509 404.943C102.709 400.489 92.3098 391.759 86.3593 382.71C85.7382 381.74 85.0418 380.322 84.4888 379.276C81.6697 374.441 77.8747 364.778 85.8478 362.823C87.7088 362.363 89.0061 362.529 90.7359 362.374C98.9449 361.638 101.778 366.822 109.142 370.013C105.946 366.71 102.085 363.496 98.7771 360.038C84.4405 345.051 75.1822 331.938 68.9005 312.297Z" fill="#EFF7FB"/>
<path d="M68.9004 312.297C71.2288 313.706 72.8548 318.42 75.0361 320.923C82.6912 329.709 88.8873 337.948 99.3802 343.563C101.017 344.439 103.506 346.441 104.938 346.407C105.546 345.577 105.406 344.79 105.417 343.724C105.872 347.367 106.011 350.911 106.643 354.535C107.706 360.625 109.372 366.715 110.947 372.698C106.723 384.742 107.742 393.555 112.508 404.943C102.709 400.489 92.3097 391.759 86.3592 382.71C85.7381 381.74 85.0417 380.322 84.4887 379.276C81.6696 374.442 77.8746 364.778 85.8477 362.823C87.7087 362.363 89.006 362.529 90.7358 362.374C98.9447 361.638 101.778 366.822 109.142 370.013C105.946 366.71 102.085 363.496 98.777 360.038C84.4404 345.051 75.1821 331.938 68.9004 312.297Z" fill="#A2BFDB"/>
<path d="M84.4887 379.276C81.6696 374.442 77.8746 364.778 85.8477 362.823C89.7663 362.769 91.1295 362.546 93.8957 365.651C98.2274 370.514 103.178 375.59 101.865 382.452C97.5101 389.896 89.1068 381.01 86.3592 382.71C85.7381 381.741 85.0417 380.322 84.4887 379.276Z" fill="#EFF7FB"/>
<path d="M84.4888 379.276C91.9138 381.832 93.4066 384.22 101.865 382.452C97.5102 389.896 89.1069 381.01 86.3593 382.71C85.7382 381.74 85.0418 380.322 84.4888 379.276Z" fill="#C2D6E9"/>
<path d="M158.82 452.01C160.933 452.482 162.018 452.763 164.173 452.843C166.748 452.934 174.253 450.687 176.031 452.037C177.383 455.392 180.261 467.872 181.383 472.09C184.895 485.281 189.583 492.219 196.293 503.805L195.807 503.847C192.227 504.174 190.835 505.426 188.175 507.875C179.274 516.065 166.851 508.339 156.694 506.004C161.538 498.164 162.593 493.193 162.442 484.171L163.002 485.319L163.73 485.395C165.138 484.228 166.192 482.044 167.135 480.39C169.183 477.651 169.419 476.658 170.041 473.357C167.849 467.001 162.601 457.537 158.82 452.01Z" fill="#779EC8"/>
<path d="M224.775 533.927C232.622 539.263 238.827 542.968 247.901 546.285C254.509 549.294 267.356 551.07 273.235 552.991C275.404 553.699 272.418 560.576 285.864 559.587C278.381 565.346 268.339 569.168 259.851 563.307C257.8 561.283 255.25 556.521 254.211 556.137C253.214 559.21 258.926 564.391 260.998 566.308C241.372 563.215 248.254 553.375 243.994 550.602L243.652 551.063C243.347 555.376 244.924 558.107 247.022 561.713C235.244 553.953 229.588 547.118 224.775 533.927Z" fill="#A2BFDB"/>
<path d="M80.8291 526.262C83.2039 533.174 85.9238 536.688 92.3534 540.477C87.9578 542.915 83.8254 544.657 78.7368 543.044C71.2022 540.656 66.5126 533.969 64.7041 526.521C65.6302 526.498 69.6828 528.263 71.1045 528.746C74.523 529.903 77.6509 527.856 80.8291 526.262Z" fill="#A2BFDB"/>
<path d="M273.911 552.74C279.928 553.52 284.68 554.22 290.744 554.345L290.846 554.695L289.307 556.312C289.113 556.464 288.916 556.616 288.715 556.764C283.753 560.351 277.107 557.487 273.911 552.74Z" fill="#A2BFDB"/>
<path d="M60.4709 517.069C60.7177 521.538 61.0631 524.912 61.9866 529.381C59.1055 526.008 57.4323 522.364 56.073 518.145C58.6308 518.621 58.9423 519.218 60.4709 517.069Z" fill="#C2D6E9"/>
</svg>
