<svg width="592" height="684" viewBox="0 0 592 684" fill="none" xmlns="http://www.w3.org/2000/svg">
<g clip-path="url(#clip0_1050_14)">
<path d="M549.42 311.502C561.78 374.622 552.02 441.542 523.14 498.722C501.79 540.972 471.49 591.622 441.4 627.982C418.37 655.812 382.61 695.582 342.17 679.262C312.14 667.152 309.76 632.622 309.43 604.502C288.15 607.262 266.7 607.262 245.42 604.502C245.4 634.362 242.38 667.962 210.41 679.992C172.43 694.282 138.31 657.991 116.45 631.971C86.5302 596.371 60.5902 551.982 38.2502 511.172C-32.5898 381.772 -3.93977 230.612 115.09 142.672C184.2 91.6115 269.42 77.0315 352.82 98.6115C377.06 140.012 395.28 184.982 418.25 227.182C434.28 256.632 457.37 297.612 489.9 310.532C509.33 318.252 529.61 316.462 549.42 311.502ZM212.2 277.782C157.47 284.392 163.88 372.732 224.8 366.382C280.8 360.542 273.96 270.322 212.2 277.782ZM329.2 277.782C274.51 284.392 280.83 372.722 341.8 366.382C397.76 360.562 391 270.312 329.2 277.782Z" fill="#D32929"/>
<path d="M313.43 59.4908C313.2 58.0508 315.19 58.1008 316.23 57.8108C350.73 48.1608 405.35 47.1108 440.8 51.6308C492.01 58.1608 580.21 85.8908 590.18 145.251C596.1 180.501 572.33 262.941 537.81 279.371C493.14 300.641 462.31 241.581 445.26 210.171C420.98 165.421 400.7 118.271 377.49 72.9408C357.07 65.3508 335.19 60.9708 313.44 59.4908H313.43Z" fill="#D32929"/>
<path d="M19.43 193.499C14.33 172.929 9.08003 152.239 7.43003 130.989C3.94003 85.869 14.48 19.859 64.64 4.21902C119.11 -12.761 178.71 24.549 215.4 61.999L185.9 70.479C131.37 87.769 79.18 123.309 41.91 166.489C35.45 173.979 28.61 185.619 22.41 191.989C21.46 192.969 21.09 193.869 19.43 193.499Z" fill="#D32929"/>
</g>
<defs>
<clipPath id="clip0_1050_14">
<rect width="591.08" height="683.22" fill="white"/>
</clipPath>
</defs>
</svg>
