<?xml version="1.0" encoding="UTF-8"?>
<svg id="Layer_1" xmlns="http://www.w3.org/2000/svg" viewBox="0 0 554.87 538.53">
  <defs>
    <style>
      .cls-1 {
        fill: #3c3c3c;
      }

      .cls-2 {
        fill: #ebebeb;
      }

      .cls-3 {
        fill: #f9c149;
      }

      .cls-4 {
        fill: #e25c54;
      }

      .cls-5 {
        fill: #608899;
      }

      .cls-6 {
        fill: #160f0d;
      }
    </style>
  </defs>
  <path class="cls-2" d="M554.87,145.65c-.4-5.31-.44-10.67-1.25-15.92-2.35-15.28-8.33-23.19-21.63-24.83-1.3-.16-2.54-.76-3.8-1.19-53.54-18.25-107.09-36.49-160.63-54.76-46.29-15.8-92.58-31.62-138.87-47.43-10.31-3.52-19.44-.8-26.44,6.78-4.98,5.39-9.05,11.95-12.22,18.6-5.86,12.28-8.39,25.64-9.18,39.16-.98,16.69-5.73,31.61-15.25,45.67C112.59,190.03,60.09,268.67,7.31,347.12c-8.25,12.26-9.65,24.99-3.51,38.29,6.83,14.8,14.05,29.42,21.2,44.07,3.59,7.36,9.33,12.3,17.08,15.18,24.78,9.24,49.53,18.58,74.23,28.02,54.53,20.85,109,41.89,163.6,62.57,5.6,2.12,12,3.58,17.9,3.22,17.81-1.09,30.64-11,40.21-25.46,8.45-12.77,16.64-25.71,25.01-38.54,55.44-85.07,110.83-170.17,166.39-255.15,14.7-22.48,24.47-46.47,25.46-73.67Z"/>
  <path class="cls-6" d="M554.87,145.65c-.99,27.2-10.76,51.19-25.46,73.67-55.56,84.99-110.95,170.09-166.39,255.15-8.36,12.83-16.55,25.77-25.01,38.54-9.57,14.46-22.41,24.37-40.21,25.46-5.9.36-12.3-1.09-17.9-3.22-54.6-20.68-109.07-41.71-163.6-62.57-24.7-9.45-49.45-18.78-74.23-28.02-7.74-2.89-13.49-7.82-17.08-15.18-7.14-14.65-14.36-29.27-21.2-44.07-6.14-13.3-4.74-26.03,3.51-38.29,52.78-78.45,105.29-157.09,158.29-235.38,9.52-14.06,14.27-28.99,15.25-45.67.79-13.52,3.32-26.88,9.18-39.16,3.18-6.65,7.24-13.21,12.22-18.6,7-7.58,16.14-10.3,26.44-6.78,46.29,15.82,92.57,31.64,138.87,47.43,53.54,18.27,107.08,36.51,160.63,54.76,1.26.43,2.51,1.03,3.8,1.19,13.29,1.64,19.28,9.55,21.63,24.83.81,5.24.86,10.61,1.25,15.92ZM96.18,353.52c-.11.07-.22.14-.33.22.13-.08.26-.16.39-.24-.82,5.93,4.13,6.45,7.71,7.8,49.19,18.57,98.42,37.02,147.64,55.49,6.34,2.38,14.37-.21,18.01-5.77,9.21-14.06,18.43-28.12,27.61-42.21.9-1.38,1.75-2.89,2.11-4.46.26-1.11-.33-2.42-.55-3.64-.74.79-1.62,1.5-2.21,2.4-9.1,13.94-18.12,27.93-27.25,41.85-4.64,7.08-11.28,9.42-19.43,7.06-2.23-.65-4.45-1.39-6.63-2.21-47.04-17.62-94.09-35.25-141.1-52.94-2.11-.8-3.99-2.23-5.99-3.34ZM135.06,286.53c1.02.28,2.8.65,4.5,1.25,33.54,11.96,67.07,23.95,100.61,35.93,18.02,6.44,36.04,12.88,54.07,19.33,4.13,1.48,7.39,3.58,7.9,8.58.9,8.76,1.34,17.31-5.67,24.18-2.2,2.16-1.12,3.09,1.29,3.96,18.16,6.55,36.31,13.11,54.4,19.86,3.55,1.33,5.43.68,7.54-2.59,21.45-33.32,43.07-66.53,64.66-99.75,17.87-27.5,35.72-55.02,53.72-82.44,2.08-3.16,1.79-4.06-1.86-5.26-12.64-4.15-25.18-8.62-37.67-13.2-3.39-1.25-5.14-.63-7.11,2.48-19.29,30.55-38.85,60.93-58.06,91.53-2.45,3.91-4.39,4.56-8.64,3-28.1-10.35-56.32-20.41-84.49-30.57-43.2-15.58-86.4-31.16-129.58-46.77-6.84-2.47-6.7-2.5-2.85-8.33,19.37-29.31,38.66-58.68,58.05-87.97,1.44-2.18,1.68-3.17-1.2-4.16-8.97-3.06-17.9-6.27-26.75-9.68-3.09-1.19-4.7-.49-6.44,2.25-6.18,9.68-12.59,19.22-18.98,28.77-33.02,49.24-66.04,98.47-99.13,147.65-1.75,2.6-2.3,3.86,1.38,5.2,18,6.51,35.91,13.24,53.8,20.04,2.6.99,3.86.26,5.18-1.91,3.03-4.97,6.4-9.74,9.39-14.74,2.58-4.32,6.5-5.96,11.98-6.61ZM235.09,99.25c-.61.59-1.51,1.24-2.14,2.08-1.89,2.53-3.76,5.08-5.51,7.71-22.44,33.81-44.8,67.67-67.37,101.39-2.62,3.91-1.62,4.99,2.31,6.38,24.77,8.77,49.47,17.74,74.18,26.66,42.24,15.25,84.49,30.45,126.66,45.89,4.31,1.58,6.41.76,8.78-3.01,18.15-28.86,36.5-57.6,54.8-86.36,5.09-7.99,10.26-15.93,15.31-23.94.94-1.5,2.78-3.01-.9-4.28-34.57-11.99-69.08-24.16-103.58-36.34-32.31-11.4-64.59-22.87-96.89-34.3-1.72-.61-3.47-1.15-5.67-1.87ZM3.69,363.21c.96,11.07,5.28,17.46,15.32,21.3,10.41,3.98,20.91,7.75,31.33,11.72,73.41,27.94,146.79,55.98,220.27,83.74,4.97,1.88,10.81,2.99,16.01,2.4,12.86-1.45,22.95-7.88,30.05-19.14,11.9-18.87,24.16-37.51,36.43-56.15,1.71-2.6,1.31-3.35-1.45-4.35-18.47-6.67-36.9-13.43-55.29-20.32-2.77-1.04-4.12-.41-5.64,1.98-5.9,9.27-12,18.41-18.05,27.59-5.24,7.93-14.13,10.81-23.07,7.46-49.39-18.52-98.77-37.05-148.15-55.6-9.99-3.75-13.95-16.52-7.98-25.53,4.69-7.08,9.26-14.24,14.13-21.19,1.95-2.78,1.32-3.74-1.62-4.82-17.64-6.51-35.25-13.11-52.8-19.85-2.84-1.09-4.47-.7-6.17,1.83-13,19.35-26.21,38.56-39.08,58-2.11,3.18-2.87,7.26-4.25,10.92ZM221.63,3.09c-1.45.18-2.44.28-3.43.43-9.91,1.59-16.21,8.02-21.12,16.1-7.33,12.05-10.42,25.5-12.26,39.28-1.85,13.81-1.67,28.01-8.24,40.89-.32.62.71,2.71,1.52,3.01,9.66,3.62,19.36,7.13,29.15,10.38,1.09.36,3.35-.66,4.09-1.72,4.65-6.7,9.13-13.53,13.43-20.46,2.66-4.28,5.54-5.69,10.74-3.86,68.43,24.11,136.93,48.03,205.42,71.99,8.09,2.83,10.19,7.84,5.96,15.42-2.75,4.93-5.9,9.67-9.18,14.27-1.92,2.7-1.57,3.62,1.58,4.68,13.09,4.41,26.13,8.95,39.07,13.76,2.9,1.08,4,.29,5.54-1.96,5.54-8.14,8.99-16.9,9.98-26.81,1.71-17.02,5.92-33.43,14.03-48.63,4.34-8.14,9.47-15.71,17.55-20.72.83-.52,1.68-1.01,2.52-1.52-.92-.51-1.79-1.17-2.78-1.51-22.04-7.52-44.09-15.02-66.16-22.47-1.2-.41-2.66-.69-3.85-.41-7.19,1.67-13.54,4.74-17.31,11.54-3.47,6.26-7,12.49-10.28,18.84-4.19,8.12-9.26,10.47-17.98,7.57-14.05-4.68-28.05-9.49-42.03-14.35-33.31-11.59-66.61-23.18-99.86-34.92-10.32-3.64-13.27-11.19-8.24-20.95,3.04-5.9,6.32-11.78,10.29-17.07,2.49-3.31,6.43-5.54,9.76-8.21.97-.78,2.05-1.43,3.07-2.14-1.05-.46-2.07-.99-3.14-1.36-17.62-6.05-35.25-12.09-52.89-18.07-1.71-.58-3.56-.75-4.93-1.02ZM292.68,535.69c10.61-.4,18.67-2.64,26.04-7.35,8.68-5.54,14.56-13.57,20-22,8.94-13.85,17.72-27.8,26.71-41.62,33.97-52.19,68.03-104.34,101.91-156.58,1.07-1.65,1.31-4.39.84-6.36-1.23-5.16-3.05-10.18-4.67-15.25-.34-1.06-.82-2.07-1.24-3.11-.75.82-1.63,1.55-2.23,2.47-13.86,21.17-27.74,42.34-41.52,63.56-15.24,23.46-30.39,46.97-45.58,70.46-2.57,3.97-5.84,4.47-7.51.65-2.42-5.55-3.57-2.91-5.54.13-12.42,19.13-24.96,38.19-37.43,57.29-8.01,12.26-32.77,24.33-49.4,17.81-43.69-17.11-87.76-33.26-131.6-49.98-41.82-15.95-83.55-32.14-125.33-48.19-.67-.26-1.47-.17-2.2-.25.24.76.4,1.56.73,2.28,4.14,8.9,8.48,17.72,12.42,26.72,3.42,7.84,9.05,12.77,17.07,15.67,16.43,5.94,32.75,12.21,49.07,18.45,63.28,24.16,126.54,48.38,189.83,72.49,3.69,1.41,7.63,2.15,9.64,2.7ZM253.71,409.86c7.06-.15,10.96-3.2,14.07-8.04,9.59-14.99,19.38-29.85,29.11-44.74,3.53-5.4,2.5-8.73-3.79-10.99-51.62-18.52-103.26-36.99-154.91-55.45-4.89-1.75-9.43-.3-12.2,3.94-9.82,15.04-19.63,30.09-29.32,45.21-4.11,6.42-2.49,10.66,4.82,13.41,47.62,17.88,95.24,35.76,142.87,53.61,3.41,1.28,6.92,2.27,9.34,3.05ZM551.47,146.31c0-1.83.28-3.71-.05-5.48-1.39-7.47-1.83-15.38-4.75-22.23-4.35-10.21-11.63-12.67-21.12-5.57-3.92,2.93-7.5,6.7-10.26,10.75-8.75,12.83-14.02,27.18-16.52,42.46-2.39,14.58-3.02,29.63-13.04,41.8-.31.38-.77,1-.65,1.3.93,2.23,1.99,4.41,3,6.61.98-1.23,2.03-2.42,2.95-3.7,7.77-10.82,11.51-22.94,13.01-36.17,2.07-18.21,7.21-35.63,18.57-50.44,3.03-3.95,7.68-6.67,11.73-9.77.54-.41,1.94.29,2.94.48-.54.82-.95,1.79-1.65,2.45-4.39,4.15-9.74,7.61-13.11,12.46-8.18,11.77-13.27,25.19-14.62,39.4-1.73,18.23-7.4,34.55-18.15,49.41-6.91,9.56-12.77,19.88-19.2,29.79-33.52,51.67-67.07,103.32-100.6,154.98-1.27,1.95-3.29,3.92-3.43,5.98-.17,2.65,1.22,5.4,1.93,8.11,1.29-1.3,2.86-2.41,3.84-3.91,16.25-24.98,32.39-50.02,48.61-75.01,12.69-19.54,25.44-39.05,38.26-58.51.9-1.36,2.64-2.17,3.98-3.24.84,1.37,1.92,2.65,2.47,4.13,1.8,4.83,3.38,9.73,5.09,14.6.43,1.22,1,2.38,1.51,3.58.84-1,1.8-1.92,2.51-3,16.28-24.96,32.43-50,48.83-74.88,15.34-23.27,27.21-47.73,27.91-76.35ZM289.29,25.71c-4.64-.09-13.79,4.91-16.84,9.49-3.49,5.26-6.83,10.66-9.78,16.23-4.82,9.11-2.81,14.42,6.82,17.8,46.96,16.44,93.95,32.78,140.95,49.09,7.1,2.47,11.14.44,14.56-6.29,3.31-6.52,6.5-13.19,10.61-19.19,2.63-3.83,6.81-6.61,10.38-9.76,1.05-.92,2.4-1.5,3.61-2.24-1.29-.6-2.54-1.32-3.88-1.78-51.01-17.43-102.02-34.84-153.03-52.25-1.26-.43-2.53-.81-3.41-1.1ZM283.13,495.07c15.73-1.63,28.57-7.2,37.46-19.7,6.46-9.08,12.33-18.58,18.38-27.95,6.76-10.49,13.43-21.04,20.11-31.59,2.05-3.25,1.56-8.81-.92-8.89-1.49-.05-3.35,2.86-4.59,4.74-12.25,18.63-24.27,37.43-36.64,55.98-10.73,16.1-30.33,21.99-48.34,15.08-24.38-9.35-48.79-18.65-73.2-27.92-58.62-22.27-117.28-44.47-175.84-66.9-4.52-1.73-8.42-5.07-12.61-7.66-.62-.38-1.26-.72-1.89-1.08.07.79.01,1.62.24,2.37,2.21,7.3,7.42,11.6,14.32,14.2,10.74,4.05,21.47,8.12,32.2,12.2,74.46,28.36,148.91,56.74,223.39,85.05,2.76,1.05,5.74,1.51,7.93,2.07ZM153.54,213.88c1.2-1.5,2.51-2.91,3.56-4.49,23.87-35.89,47.7-71.82,71.58-107.71,4.4-6.62,4.49-6.58,11.86-3.99,67,23.59,133.99,47.19,201.01,70.72,1.25.44,2.8.01,4.22,0-.65-1.6-.99-3.48-2.06-4.71-.88-1.01-2.62-1.33-4.02-1.83-67.98-23.79-135.98-47.5-203.9-71.44-4.66-1.64-6.76-.44-9.22,3.38-9.39,14.54-19.16,28.83-28.69,43.28-15.85,24.04-31.64,48.12-47.42,72.2-.5.76-1.15,2.31-.91,2.51.98.81,2.27,1.24,4,2.07ZM486.21,219.27c-1.15-1.91-2.15-3.59-3.15-5.26-1.05,1.12-2.3,2.12-3.12,3.39-34.82,53.63-69.59,107.28-104.38,160.92-4.71,7.26-9.33,14.59-14.23,21.73-2.38,3.46.44,5.49,1.53,8.06,1.27-1.24,2.81-2.31,3.75-3.76,13.46-20.84,26.76-41.78,40.25-62.59,25.54-39.4,51.18-78.73,76.77-118.1.89-1.36,1.65-2.8,2.58-4.39ZM4.41,376.55c-.12.1-.35.22-.34.28.06.27.19.53.3.8.12-.1.35-.22.34-.29-.06-.27-.19-.53-.3-.79Z"/>
  <path class="cls-4" d="M135.06,286.53c-5.48.64-9.4,2.29-11.98,6.61-2.99,5-6.36,9.77-9.39,14.74-1.32,2.17-2.58,2.89-5.18,1.91-17.89-6.79-35.81-13.53-53.8-20.04-3.68-1.33-3.13-2.6-1.38-5.2,33.09-49.19,66.12-98.42,99.13-147.65,6.4-9.54,12.8-19.09,18.98-28.77,1.75-2.73,3.35-3.44,6.44-2.25,8.85,3.41,17.77,6.62,26.75,9.68,2.88.98,2.64,1.97,1.2,4.16-19.39,29.3-38.68,58.66-58.05,87.97-3.85,5.83-3.98,5.86,2.85,8.33,43.19,15.62,86.39,31.19,129.58,46.77,28.18,10.16,56.39,20.22,84.49,30.57,4.25,1.57,6.19.91,8.64-3,19.21-30.6,38.77-60.98,58.06-91.53,1.97-3.12,3.72-3.73,7.11-2.48,12.49,4.59,25.03,9.05,37.67,13.2,3.65,1.2,3.94,2.1,1.86,5.26-18,27.42-35.85,54.94-53.72,82.44-21.59,33.23-43.21,66.43-64.66,99.75-2.11,3.28-3.98,3.92-7.54,2.59-18.09-6.75-36.24-13.31-54.4-19.86-2.41-.87-3.5-1.8-1.29-3.96,7.01-6.87,6.57-15.42,5.67-24.18-.51-5-3.77-7.1-7.9-8.58-18.02-6.44-36.04-12.88-54.07-19.33-33.53-11.98-67.07-23.97-100.61-35.93-1.7-.61-3.48-.97-4.5-1.25ZM212.62,267.11c-.36-6.22-3.65-10.4-9.86-12.6-21.3-7.56-42.66-14.95-63.76-23.02-7.62-2.91-17.89,1.47-21.67,7.84-5.24,8.82-2.01,20.34,7.39,23.78,21.21,7.78,42.5,15.37,63.9,22.59,10.82,3.65,24.11-6.84,24-18.6ZM358.01,320.74c-.42-5.04-2.08-10.53-8.5-12.86-22.48-8.16-44.94-16.41-67.55-24.21-8.82-3.04-18.96,2.91-21.87,11.82-2.34,7.17.07,16.99,10.55,20.59,21.04,7.23,41.91,14.98,62.79,22.67,11.53,4.25,24.42-4.52,24.57-18.01Z"/>
  <path class="cls-1" d="M235.09,99.25c2.19.72,3.94,1.26,5.67,1.87,32.3,11.43,64.58,22.9,96.89,34.3,34.5,12.18,69.01,24.35,103.58,36.34,3.67,1.27,1.84,2.78.9,4.28-5.05,8.02-10.23,15.95-15.31,23.94-18.3,28.76-36.65,57.5-54.8,86.36-2.37,3.77-4.47,4.59-8.78,3.01-42.17-15.43-84.42-30.63-126.66-45.89-24.71-8.93-49.41-17.9-74.18-26.66-3.93-1.39-4.93-2.47-2.31-6.38,22.57-33.72,44.92-67.58,67.37-101.39,1.75-2.63,3.61-5.18,5.51-7.71.63-.84,1.53-1.49,2.14-2.08Z"/>
  <path class="cls-5" d="M3.69,363.21c1.38-3.66,2.15-7.74,4.25-10.92,12.87-19.44,26.08-38.65,39.08-58,1.7-2.54,3.33-2.92,6.17-1.83,17.55,6.74,35.16,13.34,52.8,19.85,2.94,1.08,3.57,2.05,1.62,4.82-4.87,6.95-9.44,14.12-14.13,21.19-5.97,9-2.02,21.77,7.98,25.53,49.38,18.55,98.76,37.08,148.15,55.6,8.94,3.35,17.83.48,23.07-7.46,6.05-9.17,12.15-18.32,18.05-27.59,1.52-2.39,2.87-3.02,5.64-1.98,18.39,6.89,36.82,13.65,55.29,20.32,2.76,1,3.16,1.75,1.45,4.35-12.27,18.64-24.53,37.28-36.43,56.15-7.1,11.26-17.2,17.69-30.05,19.14-5.2.59-11.04-.52-16.01-2.4-73.48-27.77-146.86-55.8-220.27-83.74-10.42-3.97-20.92-7.73-31.33-11.72-10.04-3.84-14.36-10.23-15.32-21.3Z"/>
  <path class="cls-4" d="M221.63,3.09c1.37.28,3.22.44,4.93,1.02,17.65,5.98,35.27,12.03,52.89,18.07,1.08.37,2.1.9,3.14,1.36-1.03.71-2.1,1.36-3.07,2.14-3.32,2.67-7.27,4.9-9.76,8.21-3.97,5.29-7.26,11.16-10.29,17.07-5.02,9.76-2.07,17.31,8.24,20.95,33.25,11.74,66.56,23.33,99.86,34.92,13.98,4.87,27.99,9.68,42.03,14.35,8.71,2.9,13.78.55,17.98-7.57,3.28-6.35,6.81-12.58,10.28-18.84,3.78-6.81,10.12-9.88,17.31-11.54,1.19-.28,2.65,0,3.85.41,22.07,7.45,44.12,14.95,66.16,22.47.98.34,1.85,1,2.78,1.51-.84.51-1.69,1-2.52,1.52-8.09,5.01-13.21,12.58-17.55,20.72-8.11,15.2-12.33,31.6-14.03,48.63-.99,9.91-4.44,18.66-9.98,26.81-1.53,2.25-2.64,3.04-5.54,1.96-12.94-4.81-25.99-9.35-39.07-13.76-3.15-1.06-3.5-1.99-1.58-4.68,3.28-4.6,6.43-9.34,9.18-14.27,4.23-7.58,2.14-12.59-5.96-15.42-68.49-23.96-136.99-47.87-205.42-71.99-5.19-1.83-8.08-.42-10.74,3.86-4.3,6.93-8.79,13.75-13.43,20.46-.74,1.06-3,2.08-4.09,1.72-9.79-3.25-19.49-6.75-29.15-10.38-.81-.3-1.84-2.39-1.52-3.01,6.57-12.88,6.39-27.08,8.24-40.89,1.84-13.77,4.93-27.22,12.26-39.28,4.91-8.08,11.21-14.51,21.12-16.1.98-.16,1.98-.25,3.43-.43Z"/>
  <path class="cls-5" d="M292.68,535.69c-2.01-.55-5.95-1.3-9.64-2.7-63.29-24.12-126.55-48.34-189.83-72.49-16.33-6.23-32.64-12.51-49.07-18.45-8.02-2.9-13.65-7.84-17.07-15.67-3.93-9-8.27-17.81-12.42-26.72-.33-.72-.49-1.52-.73-2.28.74.07,1.54-.01,2.2.25,41.78,16.06,83.51,32.24,125.33,48.19,43.84,16.72,87.91,32.87,131.6,49.98,16.63,6.51,41.4-5.55,49.4-17.81,12.47-19.1,25.01-38.16,37.43-57.29,1.97-3.04,3.12-5.67,5.54-.13,1.67,3.82,4.94,3.32,7.51-.65,15.19-23.49,30.34-47,45.58-70.46,13.79-21.22,27.66-42.39,41.52-63.56.6-.92,1.48-1.65,2.23-2.47.42,1.03.9,2.05,1.24,3.11,1.62,5.07,3.44,10.09,4.67,15.25.47,1.97.23,4.71-.84,6.36-33.89,52.25-67.94,104.39-101.91,156.58-8.99,13.82-17.78,27.77-26.71,41.62-5.44,8.43-11.33,16.47-20,22-7.36,4.7-15.42,6.94-26.04,7.35ZM220.69,490.3c-1.19-4.83-4.48-8.44-9.67-10.46-14.88-5.77-29.73-11.63-44.61-17.38-21.09-8.15-42.21-16.22-63.32-24.34-2.97-1.14-6.47-1.9-8.01,1.25-1.1,2.25-1.27,6.44.12,8.13,2.81,3.41,6.58,6.7,10.63,8.31,27.03,10.75,54.23,21.08,81.41,31.47,8.38,3.21,16.8,6.34,25.31,9.2,4.78,1.61,8.3-1.02,8.14-6.19Z"/>
  <path class="cls-3" d="M253.71,409.86c-2.42-.78-5.94-1.77-9.34-3.05-47.63-17.85-95.25-35.73-142.87-53.61-7.31-2.75-8.93-6.99-4.82-13.41,9.69-15.12,19.5-30.17,29.32-45.21,2.77-4.25,7.31-5.69,12.2-3.94,51.64,18.46,103.28,36.94,154.91,55.45,6.29,2.26,7.32,5.58,3.79,10.99-9.73,14.9-19.52,29.76-29.11,44.74-3.1,4.84-7.01,7.89-14.07,8.04ZM234.33,384.94c1.13-.85,4-2.14,5.54-4.35,5.13-7.36,9.88-15,14.6-22.64,2.51-4.06,1.84-7.94-1.35-10.23-3.14-2.26-9.1-1.86-11.34,1.51-5.6,8.44-11.08,17-15.97,25.86-2.61,4.73,1.37,9.96,8.52,9.85ZM145.5,352.4c1.27-1.01,4.36-2.53,6.1-5,4.95-7.05,9.36-14.5,13.97-21.78,2.33-3.68,2.58-7.24-1.06-10.2-3.25-2.65-9.03-1.99-11.55,1.76-5.54,8.27-10.91,16.66-15.87,25.29-2.73,4.75.94,9.93,8.4,9.93ZM190.28,368.21c1.22-.9,4.26-2.2,5.91-4.5,4.93-6.85,9.4-14.04,13.87-21.21,2.89-4.64,2.38-8.56-1.03-11.05-3.37-2.45-8.74-1.9-11.53,2.09-5.4,7.73-10.57,15.67-15.21,23.87-2.86,5.04.7,10.6,7.99,10.8Z"/>
  <path class="cls-4" d="M551.47,146.31c-.7,28.61-12.57,53.07-27.91,76.35-16.4,24.88-32.54,49.93-48.83,74.88-.71,1.09-1.67,2.01-2.51,3-.51-1.19-1.08-2.36-1.51-3.58-1.71-4.86-3.29-9.77-5.09-14.6-.55-1.48-1.63-2.76-2.47-4.13-1.35,1.07-3.09,1.88-3.98,3.24-12.82,19.46-25.57,38.97-38.26,58.51-16.23,24.99-32.37,50.03-48.61,75.01-.98,1.5-2.55,2.62-3.84,3.91-.72-2.71-2.1-5.46-1.93-8.11.13-2.06,2.16-4.03,3.43-5.98,33.53-51.66,67.08-103.31,100.6-154.98,6.43-9.91,12.29-20.23,19.2-29.79,10.75-14.86,16.42-31.18,18.15-49.41,1.35-14.21,6.44-27.63,14.62-39.4,3.37-4.85,8.72-8.31,13.11-12.46.7-.66,1.11-1.62,1.65-2.45-1-.19-2.4-.89-2.94-.48-4.05,3.1-8.7,5.83-11.73,9.77-11.36,14.81-16.5,32.23-18.57,50.44-1.5,13.24-5.24,25.35-13.01,36.17-.92,1.28-1.96,2.47-2.95,3.7-1.02-2.2-2.07-4.38-3-6.61-.12-.3.34-.92.65-1.3,10.02-12.17,10.66-27.22,13.04-41.8,2.5-15.28,7.77-29.63,16.52-42.46,2.76-4.05,6.34-7.82,10.26-10.75,9.49-7.1,16.77-4.64,21.12,5.57,2.91,6.85,3.35,14.76,4.75,22.23.33,1.77.05,3.65.05,5.48ZM546.1,159.4c-.29-3.24-.25-5.77-.79-8.18-1.93-8.66-7.71-10.93-15.14-6.06-.97.64-1.99,1.28-2.74,2.14-13.04,14.87-20.87,31.88-20.43,51.97.11,4.91.97,10.52,6.45,12.55,5.69,2.1,9.91-1.66,13.44-5.51,12.32-13.46,17.16-29.97,19.21-46.91Z"/>
  <path class="cls-4" d="M289.29,25.71c.89.28,2.16.67,3.41,1.1,51.01,17.41,102.03,34.82,153.03,52.25,1.34.46,2.59,1.18,3.88,1.78-1.21.74-2.56,1.32-3.61,2.24-3.57,3.15-7.75,5.93-10.38,9.76-4.12,6-7.3,12.67-10.61,19.19-3.43,6.74-7.46,8.76-14.56,6.29-47-16.31-93.99-32.65-140.95-49.09-9.63-3.37-11.64-8.69-6.82-17.8,2.95-5.58,6.29-10.98,9.78-16.23,3.04-4.58,12.19-9.58,16.84-9.49ZM426.29,92.59c.12-6.02-3.01-10.17-10.04-12.63-26.87-9.38-53.76-18.67-80.66-27.96-14.63-5.05-29.24-10.17-43.96-14.95-8.17-2.65-16,2.51-18.87,11.84-2.44,7.94.66,13.35,9.26,16.32,40.9,14.09,81.96,27.75,122.59,42.58,12.53,4.57,21.55-6.14,21.68-15.2Z"/>
  <path class="cls-5" d="M283.13,495.07c-2.19-.56-5.17-1.02-7.93-2.07-74.48-28.31-148.93-56.69-223.39-85.05-10.73-4.09-21.46-8.16-32.2-12.2-6.91-2.6-12.11-6.89-14.32-14.2-.23-.75-.17-1.58-.24-2.37.63.36,1.27.7,1.89,1.08,4.19,2.59,8.09,5.93,12.61,7.66,58.56,22.43,117.22,44.62,175.84,66.9,24.41,9.28,48.82,18.57,73.2,27.92,18.01,6.91,37.61,1.02,48.34-15.08,12.37-18.56,24.38-37.35,36.64-55.98,1.24-1.88,3.09-4.78,4.59-4.74,2.47.08,2.97,5.64.92,8.89-6.67,10.55-13.34,21.1-20.11,31.59-6.04,9.37-11.92,18.87-18.38,27.95-8.89,12.49-21.73,18.07-37.46,19.7Z"/>
  <path class="cls-4" d="M153.54,213.88c-1.73-.84-3.03-1.26-4-2.07-.24-.2.41-1.75.91-2.51,15.78-24.08,31.57-48.17,47.42-72.2,9.53-14.45,19.3-28.74,28.69-43.28,2.46-3.82,4.56-5.02,9.22-3.38,67.92,23.94,135.92,47.66,203.9,71.44,1.4.49,3.14.81,4.02,1.83,1.08,1.23,1.41,3.11,2.06,4.71-1.41.02-2.97.45-4.22,0-67.02-23.53-134.01-47.13-201.01-70.72-7.37-2.59-7.46-2.63-11.86,3.99-23.88,35.89-47.71,71.81-71.58,107.71-1.05,1.58-2.36,2.98-3.56,4.49Z"/>
  <path class="cls-4" d="M486.21,219.27c-.93,1.59-1.7,3.03-2.58,4.39-25.59,39.37-51.23,78.7-76.77,118.1-13.49,20.81-26.79,41.76-40.25,62.59-.94,1.45-2.49,2.52-3.75,3.76-1.1-2.56-3.91-4.59-1.53-8.06,4.9-7.14,9.52-14.46,14.23-21.73,34.79-53.64,69.57-107.3,104.38-160.92.83-1.27,2.07-2.27,3.12-3.39,1,1.67,2.01,3.35,3.15,5.26Z"/>
  <path class="cls-3" d="M96.2,353.5c1.99,1.13,3.86,2.56,5.97,3.36,47.02,17.69,94.06,35.32,141.1,52.94,2.18.82,4.39,1.56,6.63,2.21,8.14,2.36,14.78.01,19.43-7.06,9.13-13.92,18.15-27.91,27.25-41.85.59-.9,1.46-1.6,2.21-2.4.21,1.22.81,2.53.55,3.64-.37,1.57-1.22,3.09-2.11,4.46-9.17,14.09-18.4,28.15-27.61,42.21-3.64,5.56-11.68,8.15-18.01,5.77-49.22-18.47-98.46-36.93-147.64-55.49-3.57-1.35-8.53-1.87-7.71-7.8h-.05Z"/>
  <path class="cls-1" d="M4.42,376.55c.11.26.24.52.3.79.01.07-.22.19-.34.29-.11-.26-.24-.52-.3-.8-.01-.07.22-.19.34-.28Z"/>
  <path class="cls-3" d="M96.25,353.49c-.13.08-.26.16-.39.24.11-.07.22-.14.34-.22,0,0,.06-.02.06-.02Z"/>
  <path class="cls-6" d="M212.62,267.11c.11,11.76-13.19,22.25-24,18.6-21.41-7.22-42.69-14.81-63.9-22.59-9.4-3.45-12.63-14.97-7.39-23.78,3.78-6.37,14.05-10.76,21.67-7.84,21.1,8.07,42.47,15.46,63.76,23.02,6.21,2.2,9.5,6.38,9.86,12.6ZM118.02,248.27c-.02,5.98,2.9,10.23,8.94,12.4,20.01,7.17,40.04,14.29,60.1,21.33,8.16,2.86,16.15-.25,20.46-7.69,3.96-6.84,1.85-13.99-5.53-16.71-21.5-7.92-43.06-15.7-64.7-23.23-9.12-3.17-19.24,4.42-19.27,13.91Z"/>
  <path class="cls-6" d="M358.01,320.74c-.15,13.49-13.04,22.26-24.57,18.01-20.88-7.69-41.75-15.44-62.79-22.67-10.48-3.6-12.89-13.42-10.55-20.59,2.9-8.91,13.04-14.86,21.87-11.82,22.61,7.8,45.06,16.04,67.55,24.21,6.42,2.33,8.08,7.82,8.5,12.86ZM354.9,320.37c-.54-3.49-1.75-7.81-6.7-9.59-22.34-8.06-44.66-16.21-67.11-23.98-7.44-2.57-15.67,2.41-18.12,10.04-2.34,7.28.77,13.22,8.95,16.22,20.9,7.69,41.87,15.17,62.79,22.81,9.41,3.43,20.3-4.25,20.18-15.5Z"/>
  <path class="cls-6" d="M220.69,490.3c.16,5.17-3.36,7.8-8.14,6.19-8.5-2.87-16.92-6-25.31-9.2-27.17-10.39-54.37-20.72-81.41-31.47-4.06-1.61-7.82-4.9-10.63-8.31-1.39-1.69-1.22-5.87-.12-8.13,1.54-3.15,5.04-2.39,8.01-1.25,21.11,8.11,42.23,16.19,63.32,24.34,14.89,5.75,29.74,11.6,44.61,17.38,5.19,2.01,8.48,5.63,9.67,10.46ZM101.01,440.68c-4.01-.4-5.59,1.57-3.74,4.31,1.91,2.84,4.7,5.81,7.78,7.02,31.53,12.41,63.2,24.48,94.83,36.62,4.34,1.67,8.71,3.29,13.15,4.66,1.23.38,2.77-.23,4.17-.39-.18-1.54.21-3.65-.65-4.5-2.28-2.26-4.83-4.65-7.75-5.8-34.45-13.6-68.99-26.99-103.51-40.43-1.54-.6-3.13-1.09-4.28-1.49Z"/>
  <path class="cls-6" d="M234.33,384.94c-7.15.11-11.13-5.12-8.52-9.85,4.89-8.86,10.37-17.43,15.97-25.86,2.24-3.37,8.2-3.77,11.34-1.51,3.19,2.29,3.86,6.18,1.35,10.23-4.72,7.64-9.46,15.28-14.6,22.64-1.54,2.21-4.42,3.5-5.54,4.35ZM247.46,349.58c-.83.53-3.02,1.17-3.97,2.63-4.91,7.47-9.69,15.04-14.05,22.84-.79,1.42.53,4.02.88,6.07,2.08-.4,5.19-.08,6.07-1.32,5.62-7.98,10.9-16.22,15.95-24.57,1.74-2.88-.41-5.65-4.87-5.64Z"/>
  <path class="cls-6" d="M145.5,352.4c-7.46,0-11.13-5.18-8.4-9.93,4.95-8.62,10.33-17.02,15.87-25.29,2.52-3.76,8.29-4.41,11.55-1.76,3.64,2.96,3.39,6.52,1.06,10.2-4.62,7.29-9.02,14.73-13.97,21.78-1.74,2.47-4.83,3.99-6.1,5ZM144.73,349.34c1.08-.87,3.25-1.94,4.41-3.68,4.7-7.04,9.27-14.19,13.46-21.55.87-1.52-.07-4.08-.18-6.15-2.24.28-5.68-.27-6.54.96-5.57,8.04-10.77,16.36-15.68,24.83-1.61,2.78-.24,5.17,4.52,5.58Z"/>
  <path class="cls-6" d="M190.28,368.21c-7.29-.19-10.85-5.76-7.99-10.8,4.65-8.2,9.81-16.14,15.21-23.87,2.79-3.99,8.16-4.55,11.53-2.09,3.41,2.49,3.92,6.41,1.03,11.05-4.47,7.17-8.95,14.36-13.87,21.21-1.65,2.3-4.69,3.6-5.91,4.5ZM189.81,365.04c.79-.64,2.65-1.56,3.67-3.05,4.78-6.97,9.35-14.09,13.96-21.18,1.48-2.28,2.29-5.22-.59-6.38-1.88-.75-5.77-.14-6.8,1.28-5.35,7.36-10.24,15.08-14.91,22.9-1.89,3.16.21,6.37,4.67,6.43Z"/>
  <path class="cls-6" d="M546.1,159.4c-2.05,16.94-6.89,33.45-19.21,46.91-3.52,3.85-7.75,7.61-13.44,5.51-5.48-2.03-6.34-7.64-6.45-12.55-.44-20.09,7.39-37.1,20.43-51.97.75-.86,1.77-1.51,2.74-2.14,7.42-4.87,13.21-2.61,15.14,6.06.53,2.41.49,4.94.79,8.18ZM542.81,158.64c0-1.16.33-2.45-.06-3.46-1.2-3.09-2.2-8.11-4.18-8.58-2.76-.66-7.31,1.25-9.4,3.58-12.01,13.39-18.81,29.17-19.24,47.32-.1,4.25.15,9.44,4.76,11.23,4.73,1.83,8.12-2.16,10.82-5.43,10.7-12.93,16.41-27.89,17.31-44.65Z"/>
  <path class="cls-6" d="M426.29,92.59c-.14,9.06-9.15,19.78-21.68,15.2-40.63-14.83-81.69-28.48-122.59-42.58-8.6-2.96-11.7-8.38-9.26-16.32,2.87-9.33,10.7-14.49,18.87-11.84,14.72,4.78,29.33,9.9,43.96,14.95,26.9,9.28,53.8,18.58,80.66,27.96,7.03,2.45,10.16,6.61,10.04,12.63ZM423.11,91.91c.13-4.39-2.58-7.23-6.89-8.77-6.41-2.29-12.86-4.49-19.3-6.72-34.55-11.92-69.1-23.87-103.68-35.7-8.21-2.81-14.68.5-17.32,8.39-2.4,7.16-.08,10.74,9,13.87,40.22,13.89,80.45,27.75,120.64,41.7,9.23,3.2,17.56-2.49,17.56-12.78Z"/>
  <path class="cls-3" d="M118.02,248.27c.03-9.48,10.15-17.08,19.27-13.91,21.64,7.53,43.2,15.31,64.7,23.23,7.38,2.72,9.49,9.86,5.53,16.71-4.31,7.44-12.3,10.55-20.46,7.69-20.06-7.04-40.09-14.16-60.1-21.33-6.04-2.16-8.96-6.41-8.94-12.4Z"/>
  <path class="cls-3" d="M354.9,320.37c.11,11.26-10.78,18.94-20.18,15.5-20.92-7.64-41.89-15.12-62.79-22.81-8.18-3.01-11.29-8.94-8.95-16.22,2.45-7.63,10.67-12.62,18.12-10.04,22.45,7.76,44.77,15.91,67.11,23.98,4.95,1.78,6.16,6.1,6.7,9.59Z"/>
  <path class="cls-3" d="M101.01,440.68c1.16.4,2.74.89,4.28,1.49,34.52,13.43,69.05,26.82,103.51,40.43,2.91,1.15,5.47,3.54,7.75,5.8.86.85.47,2.96.65,4.5-1.4.16-2.94.77-4.17.39-4.44-1.37-8.81-3-13.15-4.66-31.64-12.14-63.3-24.21-94.83-36.62-3.08-1.21-5.86-4.18-7.78-7.02-1.85-2.75-.27-4.71,3.74-4.31Z"/>
  <path class="cls-4" d="M247.46,349.58c4.46,0,6.6,2.77,4.87,5.64-5.05,8.36-10.33,16.59-15.95,24.57-.88,1.25-3.99.92-6.07,1.32-.35-2.05-1.67-4.66-.88-6.07,4.37-7.79,9.14-15.37,14.05-22.84.96-1.46,3.14-2.11,3.97-2.63Z"/>
  <path class="cls-4" d="M144.73,349.34c-4.76-.41-6.13-2.8-4.52-5.58,4.91-8.47,10.1-16.79,15.68-24.83.86-1.24,4.29-.69,6.54-.96.11,2.08,1.05,4.63.18,6.15-4.19,7.35-8.76,14.5-13.46,21.55-1.16,1.74-3.33,2.8-4.41,3.68Z"/>
  <path class="cls-4" d="M189.81,365.04c-4.46-.06-6.56-3.27-4.67-6.43,4.67-7.82,9.56-15.54,14.91-22.9,1.03-1.42,4.92-2.03,6.8-1.28,2.88,1.16,2.07,4.1.59,6.38-4.6,7.09-9.17,14.21-13.96,21.18-1.02,1.49-2.88,2.41-3.67,3.05Z"/>
  <path class="cls-4" d="M542.81,158.64c-.9,16.76-6.61,31.72-17.31,44.65-2.7,3.27-6.09,7.27-10.82,5.43-4.61-1.79-4.86-6.98-4.76-11.23.43-18.15,7.23-33.93,19.24-47.32,2.09-2.33,6.65-4.24,9.4-3.58,1.98.47,2.98,5.5,4.18,8.58.39,1.01.06,2.3.06,3.46ZM517.19,190.75c.62,1.53,1.25,4.09,2.71,6.02.39.52,3.97-.33,5-1.51,8.43-9.64,12.06-21.21,12.5-33.82.05-1.53-1.1-3.95-2.3-4.43-1.09-.43-3.44.84-4.5,2.02-7.76,8.71-11.55,19.19-13.41,31.71Z"/>
  <path class="cls-4" d="M423.11,91.91c0,10.28-8.33,15.98-17.56,12.78-40.19-13.95-80.42-27.81-120.64-41.7-9.08-3.13-11.39-6.71-9-13.87,2.64-7.89,9.12-11.2,17.32-8.39,34.58,11.83,69.12,23.79,103.68,35.7,6.44,2.22,12.89,4.42,19.3,6.72,4.31,1.54,7.01,4.38,6.89,8.77Z"/>
  <path class="cls-6" d="M517.19,190.75c1.87-12.52,5.65-23,13.41-31.71,1.05-1.18,3.4-2.45,4.5-2.02,1.2.47,2.36,2.9,2.3,4.43-.44,12.61-4.07,24.18-12.5,33.82-1.03,1.18-4.61,2.03-5,1.51-1.46-1.93-2.09-4.5-2.71-6.02Z"/>
</svg>