<?xml version="1.0" encoding="UTF-8"?>
<svg id="Layer_1" data-name="Layer 1" xmlns="http://www.w3.org/2000/svg" viewBox="0 0 591.08 683.22">
  <path d="M549.42,311.5c12.36,63.12,2.6,130.04-26.28,187.22-21.35,42.25-51.65,92.9-81.74,129.26-23.03,27.83-58.79,67.6-99.23,51.28-30.03-12.11-32.41-46.64-32.74-74.76-21.28,2.76-42.73,2.76-64.01,0-.02,29.86-3.04,63.46-35.01,75.49-37.98,14.29-72.1-22-93.96-48.02-29.92-35.6-55.86-79.99-78.2-120.8C-32.59,381.77-3.94,230.61,115.09,142.67c69.11-51.06,154.33-65.64,237.73-44.06,24.24,41.4,42.46,86.37,65.43,128.57,16.03,29.45,39.12,70.43,71.65,83.35,19.43,7.72,39.71,5.93,59.52.97ZM212.2,277.78c-54.73,6.61-48.32,94.95,12.6,88.6,56-5.84,49.16-96.06-12.6-88.6ZM329.2,277.78c-54.69,6.61-48.37,94.94,12.6,88.6,55.96-5.82,49.2-96.07-12.6-88.6Z"/>
  <path d="M313.43,59.49c-.23-1.44,1.76-1.39,2.8-1.68,34.5-9.65,89.12-10.7,124.57-6.18,51.21,6.53,139.41,34.26,149.38,93.62,5.92,35.25-17.85,117.69-52.37,134.12-44.67,21.27-75.5-37.79-92.55-69.2-24.28-44.75-44.56-91.9-67.77-137.23-20.42-7.59-42.3-11.97-64.05-13.45Z"/>
  <path d="M19.43,193.5c-5.1-20.57-10.35-41.26-12-62.51C3.94,85.87,14.48,19.86,64.64,4.22c54.47-16.98,114.07,20.33,150.76,57.78l-29.5,8.48c-54.53,17.29-106.72,52.83-143.99,96.01-6.46,7.49-13.3,19.13-19.5,25.5-.95.98-1.32,1.88-2.98,1.51Z"/>
</svg>