<svg width="592" height="684" viewBox="0 0 592 684" fill="none" xmlns="http://www.w3.org/2000/svg">
<g clip-path="url(#clip0_1050_14)">
<path d="M118.952 147.897C185.674 98.6017 267.8 84.0944 348.574 104.238C359.987 123.978 370.1 144.556 380.155 165.417C390.577 187.037 400.96 209.01 412.541 230.287C420.548 244.997 430.538 263.01 442.717 278.993C454.655 294.66 469.165 309.016 486.665 316.232L487.5 316.57C506.436 324.094 525.841 323.239 544.249 319.361C554.411 379.074 544.575 441.863 517.339 495.788C496.11 537.799 466.06 587.985 436.393 623.835L436.392 623.836C424.867 637.763 410.692 653.986 394.679 664.787C378.79 675.504 362.061 680.277 344.603 673.231H344.601C331.858 668.093 324.83 658.279 320.851 645.895C316.791 633.26 316.095 618.483 315.93 604.423L315.844 597.113L308.594 598.054C287.869 600.742 266.981 600.742 246.256 598.054L238.925 597.103L238.92 604.495C238.91 619.369 238.122 634.273 233.758 646.791C229.573 658.795 222.192 668.395 208.765 673.658L208.12 673.906C191.813 680.041 176.014 675.577 160.959 665.667C145.806 655.693 132.33 640.766 121.427 627.788L121.426 627.787L120.047 626.138C91.1503 591.348 65.922 548.184 43.9512 508.049V508.048C-25.4197 381.331 2.68834 233.794 118.952 147.897ZM252.413 282.793C242.456 273.957 228.551 269.257 211.42 271.326C179.613 275.168 166.018 302.969 168.668 327.634C170.001 340.043 175.413 352.258 185.082 360.973C194.717 369.656 208.134 374.457 224.684 372.923L225.474 372.845C241.373 371.187 253.161 363.43 260.506 352.693C267.754 342.1 270.484 328.915 269.122 316.39C267.759 303.855 262.245 291.519 252.413 282.793ZM369.425 282.793C359.468 273.954 345.56 269.254 328.42 271.326C296.635 275.168 283.027 302.964 285.664 327.627C286.991 340.036 292.397 352.252 302.066 360.968C311.854 369.79 325.548 374.604 342.472 372.845C358.363 371.192 370.148 363.436 377.494 352.701C384.743 342.109 387.478 328.924 386.122 316.396C384.765 303.86 379.257 291.521 369.425 282.793Z" fill="#DAB467" stroke="black" stroke-width="13"/>
<path d="M349.867 58.1113C379.914 54.5449 414.827 54.8712 439.979 58.0781C465.047 61.2747 499.134 69.6733 527.999 84.417C557.087 99.2743 579.303 119.727 583.771 146.326C586.467 162.382 582.389 190.586 573.028 217.211C568.394 230.391 562.586 242.826 555.964 252.858C549.275 262.992 542.12 270.12 535.017 273.501H535.016C525.318 278.118 516.726 278.28 508.893 275.76C500.85 273.172 493.157 267.602 485.862 260.019C473.009 246.657 462.557 228.334 454.353 213.291L450.973 207.069C438.919 184.854 427.842 162.011 416.84 138.972C405.858 115.975 394.934 92.745 383.276 69.9775L382.124 67.7275L379.755 66.8467C370.045 63.2374 360.029 60.3384 349.867 58.1113Z" fill="#B55E36" stroke="black" stroke-width="13"/>
<path d="M19.4291 193.5C14.3291 172.93 9.07905 152.24 7.42905 130.99C3.93905 85.87 14.4791 19.86 64.6391 4.22C119.109 -12.76 178.709 24.55 215.399 62L185.899 70.48C131.369 87.77 79.1791 123.31 41.9091 166.49C35.4491 173.98 28.6091 185.62 22.4091 191.99C21.4591 192.97 21.0891 193.87 19.4291 193.5Z" fill="#DAB467"/>
<path d="M19.4291 193.5C14.3291 172.93 9.07905 152.24 7.42905 130.99C3.93905 85.87 14.4791 19.86 64.6391 4.22C119.109 -12.76 178.709 24.55 215.399 62L185.899 70.48C131.369 87.77 79.1791 123.31 41.9091 166.49C35.4491 173.98 28.6091 185.62 22.4091 191.99C21.4591 192.97 21.0891 193.87 19.4291 193.5Z" fill="#DAB467"/>
<path d="M19.4291 193.5C14.3291 172.93 9.07905 152.24 7.42905 130.99C3.93905 85.87 14.4791 19.86 64.6391 4.22C119.109 -12.76 178.709 24.55 215.399 62L185.899 70.48C131.369 87.77 79.1791 123.31 41.9091 166.49C35.4491 173.98 28.6091 185.62 22.4091 191.99C21.4591 192.97 21.0891 193.87 19.4291 193.5Z" stroke="black" stroke-width="17"/>
<mask id="path-5-inside-1_1050_14" fill="white">
<path d="M32.9365 180.014C29.7299 184.53 26.5578 188.885 23.5371 191.988C22.5871 192.968 22.2166 193.868 20.5566 193.498C20.4539 193.084 20.3493 192.669 20.2461 192.255C24.3518 188.086 28.5854 184.003 32.9365 180.014ZM64.999 3.99902C119.469 -12.981 179.837 24.548 216.527 61.998L187.027 70.4785C181.125 72.35 175.25 74.435 169.418 76.7207C130.624 44.7506 78.3104 19.5925 29.8008 34.7168C28.4289 35.1446 27.0854 35.6094 25.7686 36.1064C34.6772 21.2325 47.3767 9.49378 64.999 3.99902Z"/>
</mask>
<path d="M32.9365 180.014C29.7299 184.53 26.5578 188.885 23.5371 191.988C22.5871 192.968 22.2166 193.868 20.5566 193.498C20.4539 193.084 20.3493 192.669 20.2461 192.255C24.3518 188.086 28.5854 184.003 32.9365 180.014ZM64.999 3.99902C119.469 -12.981 179.837 24.548 216.527 61.998L187.027 70.4785C181.125 72.35 175.25 74.435 169.418 76.7207C130.624 44.7506 78.3104 19.5925 29.8008 34.7168C28.4289 35.1446 27.0854 35.6094 25.7686 36.1064C34.6772 21.2325 47.3767 9.49378 64.999 3.99902Z" fill="#B55E36"/>
<path d="M32.9365 180.014L39.4594 184.645L27.5305 174.117L32.9365 180.014ZM23.5371 191.988L17.8042 186.408L17.7986 186.414L17.793 186.42L23.5371 191.988ZM20.5566 193.498L12.7917 195.423L13.9833 200.229L18.8162 201.306L20.5566 193.498ZM20.2461 192.255L14.5465 186.641L11.3994 189.836L12.4832 194.188L20.2461 192.255ZM64.999 3.99902L62.6182 -3.63849L62.6177 -3.63832L64.999 3.99902ZM216.527 61.998L218.738 69.6867L231.629 65.9808L222.242 56.3995L216.527 61.998ZM187.027 70.4785L184.817 62.7899L184.713 62.8199L184.609 62.8527L187.027 70.4785ZM169.418 76.7207L164.33 82.8944L167.959 85.885L172.337 84.169L169.418 76.7207ZM29.8008 34.7168L27.4196 27.0794L27.4191 27.0795L29.8008 34.7168ZM25.7686 36.1064L18.9054 31.9958L7.10215 51.7026L28.5935 43.5911L25.7686 36.1064ZM32.9365 180.014L26.4136 175.382C23.1472 179.982 20.3216 183.822 17.8042 186.408L23.5371 191.988L29.27 197.568C32.7941 193.947 36.3126 189.077 39.4594 184.645L32.9365 180.014ZM23.5371 191.988L17.793 186.42C17.5551 186.666 17.3562 186.887 17.2174 187.043C17.0163 187.27 17.0433 187.243 16.9511 187.345C16.828 187.482 17.1153 187.133 17.6427 186.754C18.292 186.287 19.1851 185.848 20.2612 185.667C21.2541 185.5 21.9949 185.622 22.2971 185.69L20.5566 193.498L18.8162 201.306C19.9483 201.559 21.3579 201.707 22.9169 201.445C24.5591 201.169 25.9153 200.513 26.9835 199.745C27.9298 199.064 28.5916 198.33 28.857 198.034C28.9591 197.92 29.1839 197.664 29.1913 197.656C29.2611 197.577 29.2817 197.556 29.2812 197.557L23.5371 191.988ZM20.5566 193.498L28.3215 191.573C28.2217 191.17 28.0997 190.686 28.009 190.322L20.2461 192.255L12.4832 194.188C12.5989 194.653 12.6861 194.997 12.7917 195.423L20.5566 193.498ZM20.2461 192.255L25.9457 197.869C29.9552 193.798 34.0908 189.808 38.3426 185.911L32.9365 180.014L27.5305 174.117C23.0799 178.197 18.7484 182.375 14.5465 186.641L20.2461 192.255ZM64.999 3.99902L67.3799 11.6365C92.1252 3.92265 118.74 8.42827 144.143 19.8804C169.526 31.324 192.996 49.4106 210.813 67.5966L216.527 61.998L222.242 56.3995C203.369 37.1355 178.309 17.7326 150.719 5.29416C123.147 -7.13571 92.3429 -12.9046 62.6182 -3.63849L64.999 3.99902ZM216.527 61.998L214.317 54.3094L184.817 62.7899L187.027 70.4785L189.238 78.1671L218.738 69.6867L216.527 61.998ZM187.027 70.4785L184.609 62.8527C178.533 64.7792 172.491 66.9238 166.499 69.2724L169.418 76.7207L172.337 84.169C178.008 81.9463 183.717 79.9208 189.445 78.1044L187.027 70.4785ZM169.418 76.7207L174.506 70.547C135.14 38.1056 79.9385 10.7051 27.4196 27.0794L29.8008 34.7168L32.182 42.3542C76.6823 28.4799 126.108 51.3956 164.33 82.8944L169.418 76.7207ZM29.8008 34.7168L27.4191 27.0795C25.8921 27.5557 24.4008 28.0718 22.9436 28.6218L25.7686 36.1064L28.5935 43.5911C29.7701 43.147 30.9657 42.7335 32.1825 42.354L29.8008 34.7168ZM25.7686 36.1064L32.6317 40.2171C40.7419 26.6763 51.9933 16.4341 67.3804 11.6364L64.999 3.99902L62.6177 -3.63832C42.76 2.55341 28.6126 15.7886 18.9054 31.9958L25.7686 36.1064Z" fill="black" mask="url(#path-5-inside-1_1050_14)"/>
<path d="M278.743 217.74L305.119 245.641L276.94 272.208L251.106 245.537L278.743 217.74Z" fill="#B55E36" stroke="black" stroke-width="9"/>
<path d="M529.023 374.793C530.409 373.675 532.443 374.856 532.16 376.613C532.142 376.723 532.115 376.831 532.079 376.936L511.774 435.871L511.756 435.922L511.74 435.973L494.094 491.004C493.083 494.156 489.709 495.894 486.555 494.887L420.976 473.943C416.425 472.49 415.316 466.559 419.034 463.558L529.023 374.793Z" fill="#997946" stroke="black" stroke-width="10"/>
<path d="M134.204 498.647C129.914 495.666 132.88 489.32 137.523 490.054C137.572 490.072 137.625 490.093 137.683 490.115C138.062 490.26 138.62 490.472 139.34 490.744C140.781 491.288 142.873 492.07 145.485 493.027C150.709 494.942 158.023 497.559 166.389 500.376C183.058 505.988 204.134 512.468 221.187 515.685C227.188 516.817 234.861 517.953 240.979 518.802C244.05 519.227 246.75 519.583 248.684 519.833C249.65 519.958 250.426 520.056 250.961 520.123C251.228 520.157 251.435 520.183 251.576 520.2H251.577C274.983 525.301 300.476 522.005 324.999 516.476C337.344 513.692 349.593 510.305 361.312 507.057C373.04 503.806 384.202 500.703 394.623 498.394C399.265 497.557 402.272 503.707 398.26 506.821L398.007 507.018L397.781 507.245L400.936 510.382C397.781 507.245 397.781 507.245 397.78 507.246L397.719 507.308C397.677 507.349 397.615 507.413 397.533 507.495C397.369 507.66 397.125 507.904 396.807 508.224C396.17 508.863 395.236 509.801 394.046 510.996C391.665 513.386 388.259 516.803 384.156 520.911C375.951 529.128 364.965 540.107 353.839 551.163C342.71 562.221 331.451 573.344 322.697 581.853C318.317 586.109 314.583 589.694 311.812 592.282C310.424 593.58 309.304 594.602 308.479 595.325C308.136 595.625 307.863 595.854 307.658 596.021C307.632 596.027 307.604 596.036 307.573 596.042C307.129 596.136 306.481 596.24 305.607 596.347C303.868 596.559 301.524 596.746 298.719 596.902C293.125 597.214 285.969 597.39 278.726 597.447C271.489 597.504 264.221 597.441 258.416 597.278C255.51 597.197 253.001 597.092 251.06 596.967C250.088 596.904 249.288 596.839 248.668 596.772C248.42 596.746 248.214 596.718 248.046 596.694C247.824 596.556 247.514 596.355 247.107 596.069C246.093 595.357 244.7 594.304 242.95 592.928C239.464 590.184 234.762 586.31 229.239 581.659C218.203 572.367 204.022 560.092 190.003 547.841C175.989 535.594 162.158 523.388 151.828 514.243C146.664 509.671 142.375 505.865 139.378 503.202C137.88 501.871 136.704 500.825 135.903 500.112C135.503 499.756 135.197 499.483 134.99 499.299C134.887 499.207 134.809 499.137 134.757 499.091C134.731 499.068 134.71 499.05 134.697 499.038C134.691 499.032 134.686 499.028 134.683 499.025C134.681 499.024 134.68 499.022 134.679 499.021C134.676 499.023 134.596 499.113 131.352 502.754L134.678 499.021L134.452 498.82L134.204 498.647Z" fill="#997946" stroke="black" stroke-width="10"/>
<circle cx="218.5" cy="322.5" r="47.5" fill="#110909"/>
<path d="M258.357 339.411C258.357 353.282 240.757 366.164 219.047 366.164C197.336 366.164 179.736 353.282 179.736 339.411C179.736 325.541 197.336 346.519 219.047 346.519C240.757 346.519 258.357 325.541 258.357 339.411Z" fill="#475C6B"/>
<ellipse cx="205.953" cy="300.068" rx="14.1954" ry="8.18966" transform="rotate(-29.7254 205.953 300.068)" fill="#F5F7F4"/>
<circle cx="336.082" cy="321.788" r="46.348" transform="rotate(20.1414 336.082 321.788)" fill="#110909"/>
<path d="M351.688 312.713C347.764 314.57 344.416 313.208 341.198 306.406C337.981 299.604 333.919 296.218 340 291.001C343.669 287.853 351.081 292.268 354.299 299.07C357.516 305.872 355.612 310.857 351.688 312.713Z" fill="#F5F7F4"/>
<path d="M350.48 354.385C347.568 362.658 334.905 366.835 322.62 362.511C310.336 358.187 303.082 346.998 305.994 338.726C308.905 330.453 316.389 339.433 328.674 343.758C340.958 348.082 353.392 346.113 350.48 354.385Z" fill="#475C6B"/>
</g>
<defs>
<clipPath id="clip0_1050_14">
<rect width="591.08" height="683.22" fill="white"/>
</clipPath>
</defs>
</svg>
