<?xml version="1.0" encoding="UTF-8"?>
<svg id="Layer_1" data-name="Layer 1" xmlns="http://www.w3.org/2000/svg" viewBox="0 0 1312.66 344.6">
  <path d="M144.47,4.1c99.83,25.34,90.41,158.4,1.47,194.53-5.98,2.43-30.94,7.52-32.47,11.35-3.33,8.29,11.93,64.94,10.79,79.67-.13,1.68-1.22,4.72-2.42,5.67-7.17,5.71-51.93,7.35-63.3,10.37l-4.69-6.48C36.15,206.95,16.6,112.95,0,19.47c2.15-4.57,7.24-5.03,11.54-6.46C45.45,1.76,109.84-4.69,144.47,4.1ZM128.44,75.12c-7.36-2.3-33.79-4.93-36.26,3.62,1.69,8.64,6.92,67.7,12.3,69.8s24.27-5.77,29.6-8.99c25.33-15.34,24.83-54.91-5.63-64.44Z"/>
  <path d="M1108.78,131.25c-3.53-17.32-40.23-13.34-52.39-11.39-6.18.99-19.79,7.67-24.87,5.88-2.83-.99-15.08-43.51-13.39-48.7,1.32-4.06,32-10.32,37.41-11.04,38.97-5.17,89.76.44,106.16,42.55,8.68,22.28,10.87,123.81,7.15,148.75-.38,2.55-.67,4.74-2.85,6.45-3.47,2.71-43.54,2.91-49.47,1.71-8.5-1.72-5.4-16.97-8.28-17.75-1.52-.41-20.04,13.84-27.25,15.74-103.62,27.2-108.82-135.03,3.2-123.63,7.97.81,16.35,6.11,24.59,5.91-.59-4.31.82-10.5,0-14.5ZM1110.04,197.78c0-15.52-12.58-28.11-28.11-28.11s-28.11,12.58-28.11,28.11,12.58,28.11,28.11,28.11,28.11-12.58,28.11-28.11Z"/>
  <path d="M735.33,73.21c66.33,29.47,35.47,131.8,42.26,188.86-1.45,2.2-3.76,3.26-6.28,3.72-4.92.89-36.97.79-41.95-.13-11.35-2.08-6.69-17.38-11.11-17.96-2.31-.3-14.13,10.61-18.43,12.59-3.76,1.73-12.75,4.89-16.61,5.38-97.13,12.52-98.31-135.61,10.09-125.96,7.05.63,26.63,11.99,26.57,1.61-.14-27.13-31.43-25.62-50.29-22.28-6.58,1.17-24.07,8.07-28.52,7.02-3.89-.91-16.14-42.86-15.11-47.65.67-3.11,9.83-6.46,12.64-7.37,28.52-9.24,69.23-10.08,96.74,2.14ZM708.36,175.19c-33.94-21.48-60.95,24.79-36.31,43.86,35.94,27.82,62.32-27.4,36.31-43.86Z"/>
  <path d="M799.78,174.75c2.31-2.31,57.17,1.26,65.31-.03,9.07,18.82,29.85,26.22,47.3,12.63,4.69-3.65,6.64-12.59,7.39-12.59h67c-2.49,41.77-38.9,72.7-79.47,76.03-6.91.57-37.78-2.12-40.61,2.65-5.69,9.61,4.5,84.61-4.18,90.05-2.51,1.57-55.8,1.37-59.04.03-.21-.09-3.69-2.54-3.69-2.77v-166Z"/>
  <path d="M488.78,103.75c.04.15,2.31,1.99,2.47,1.99,5.96-.16,57.47-50.58,65.86-50.75,3.96-.08,38.83,46.07,38.79,50.26-.05,4.4-16.67,16.85-20.92,20.46-6.38,5.41-36.43,29.65-41.94,30.81-12.61-1.21-102.71,2.72-106.87-.66-5.79-4.71,1.5-132.46-1.33-149.34,2.3-1.61,3.15-4.39,6.33-4.84,7.72-1.09,44.69-1.19,52.13.02.34.05,5.48,3.71,5.48,4.05v98Z"/>
  <path d="M424.78,174.75l112.26.05c6.56,6.88,58.16,44.98,58.77,50.5.33,2.99-32.76,46.32-35.74,47.23-2.27.69-5.97.56-8.25-.36-7.22-5.02-53.79-48.61-57.55-48.52-3.1.07-4.51.39-5.44,3.64-2.25,7.86,4.19,45.15-4.31,47.14-4.83,1.13-49.08,1.34-54.25.37-1.29-.24-5.48-5.13-5.48-5.56v-94.5Z"/>
  <path d="M404.62,172.91c3.66,2.37-2.12,22.57-3.49,26.7-23.28,70.18-129.84,79.83-165.21,14.26-2.92-5.41-15.24-35.03-11.15-39.12,2.26-2.26,56.65-.25,63.83.18,9.71,27.59,42.79,24.09,54.81-.03,8.79-.11,56.81-4.83,61.2-1.99Z"/>
  <path d="M799.78,137.25c9.98-80.19,159.39-79.28,183.64.36.9,2.96,4.25,15.65,2.48,17.73-2.06,2.41-58.52,2.46-63.36,1.34-1.02-.23-8.72-12.54-13.02-15.24-11.99-7.55-26.33-7.3-37.45,2.02-3.01,2.53-8.15,13.28-9.79,13.28h-60c-.13,0-2.5-.87-2.5-1,0-5.63-.66-13.19,0-18.5Z"/>
  <path d="M355.4,82.15c19.3,7.97,39.97,31.45,46.28,51.2,1.24,3.88,5.9,19.37,3.13,21.93-2.14,1.99-53.42,2.43-58.46,1.39s-9.11-13.82-16.33-16.88c-11.38-4.83-21.59-5.42-32.43,1.29-4.92,3.04-10.06,14.55-13.5,15.44s-51.32,1.07-54.85.28c-7.12-1.6-3.53-9.35-2.14-15.23,13.42-56.88,76.15-80.96,128.31-59.42Z"/>
  <path d="M1253.78,174.75v29.5c0,2.77,2.86,4.81,5.57,5.43,8.03,1.82,50.95-3.27,53.09,3.36,1.41,4.37-4.48,56.08-6.59,59.05-.91,1.27-5.78,2.5-7.51,2.74-18.09,2.47-76.35,1.96-95.11-.03-2.05-.22-12.46-2.86-12.46-4.04v-96h63Z"/>
  <path d="M1190.78,156.75l-1.75-144.23c1.56-2.87.53-5.44,4.46-6.52,3.49-.96,53.25-1.28,56.46-.13,1.93.7,4.55,5.14,4.87,7.34,6.09,41.45-5.3,96.3-.97,139.09.5,1.84-2.35,4.44-3.56,4.44h-59.5Z"/>
  <path d="M321.5,153.05c10.25,3.13,9.5,23.56-2.51,25.39-24.67,3.77-21.69-32.78,2.51-25.39Z"/>
  <path d="M897.44,153.12c10.13,2.63,11.77,20.63.47,24.24-23.6,7.53-26.11-30.9-.47-24.24Z"/>
</svg>