<?xml version="1.0" encoding="UTF-8"?>
<svg id="Layer_1" data-name="Layer 1" xmlns="http://www.w3.org/2000/svg" viewBox="0 0 533.63 507.53">
  <defs>
    <style>
      .cls-1 {
        fill: #f4c825;
      }

      .cls-2 {
        fill: #d99944;
      }

      .cls-3 {
        fill: #f3c724;
      }

      .cls-4 {
        fill: #d79446;
      }

      .cls-5 {
        fill: #060503;
      }

      .cls-6 {
        fill: #b97337;
      }

      .cls-7 {
        fill: #f5c825;
      }

      .cls-8 {
        fill: #db9944;
      }

      .cls-9 {
        fill: #db9945;
      }

      .cls-10 {
        fill: #d79642;
      }

      .cls-11 {
        fill: #824336;
      }

      .cls-12 {
        fill: #d5913b;
      }

      .cls-13 {
        fill: #0e0b06;
      }

      .cls-14 {
        fill: #9a5136;
      }

      .cls-15 {
        fill: #e5e4e3;
      }

      .cls-16 {
        fill: #f4c728;
      }

      .cls-17 {
        fill: #070604;
      }

      .cls-18 {
        fill: #df5a4e;
      }

      .cls-19 {
        fill: #9c5138;
      }

      .cls-20 {
        fill: #9f563c;
      }

      .cls-21 {
        fill: #dc9d42;
      }
    </style>
  </defs>
  <path class="cls-17" d="M420.67,253.19l19.12,69.13c.89,5.43-2.15,10.11-7.74,10.73l-53.36,1.62,12.31,52.51c.25,5.27-2.78,9.12-7.95,10.05l-49.82,3.89c7.58,32.03-5.37,64.14-33.43,80.91.64,3.52,1.48,7.66.13,10.29-2.23,4.33-7.22,6.58-12.01,7.72-23.71,5.61-47.65,7.96-72.03,7.41-6.57-.15-13.27-1.64-18.86-4.23-6.94-3.23-9.02-10.79-6.14-17.45-.67-1.55-5.94-2.58-7.04-.98l-8.65,12.52c-4.18,6.05-9.13,5.27-15.48,5.43-5.46.14-11.5,3.48-16.57-2.37-14.39,6.98-16.03-9.75-24.58-4.58-4.32,2.62-10.25.13-14.46.3-5.81.24-10.22.73-15.68-2.61-1.87-1.15-6.68-.31-8.61-2.32-6.28-6.57-2.29-15.72,3.93-21.83-4.44-12.37-8.88-23.78-12.19-36.34-8.82-33.4-9.66-67.57-3.78-101.82C26.95,313.29-6.32,267.73,1.02,223.23c5.61-23.77,17.14-13.46,19.42-29.89,4.58-32.99,22.25-54.09,52.45-67.31l4.43-10.91C93.68,74.86,148.74,11.12,191.02.24c2.75-.71,7.34.24,9.37,1.87,7.52,6.03.42,27.38-1.74,36.05-10.59,29.11-25.48,55.55-45.85,80.37l22.84,7.16c33.75-21.48,71.49-35.24,111.56-40.92,18.07-2.56,45.28-5.82,61.76.67,7.02,2.77,9.35,10.26,5.85,17-18.53,35.74-88.58,68.47-128.35,77.73,9.45,27.23,8.19,46,11.92,73.33,2.74,13.07,8.08,24.42,17.45,34.01l30.56,31.26c10.4,10.63,18.31,22.06,26.8,34.71l18.26-1.16c-5.79-19.72-12.78-37.33-20.15-56.12-.8-2.04-.73-5.27.06-7.13s3.74-3.72,6.1-4l45.71-5.36-42.96-82.27c-2.49-4.76-.98-9.87,3.46-12.31l35.68-19.57,106.85-58.92,55.19-29.94c2.11-1.15,5.9-1.1,7.86-.29,1.73.71,4.59,3.46,4.35,6.08l-13.33,143.4c.4,4.94-1.61,8.7-6.12,10.44l-93.49,16.86ZM130.1,116.35c2.65.35,5.56.54,8.67.6,15.12-18.78,28.4-37.62,39.16-60.05-5.91-.75-11.06-.78-17.05-.3-12.52,1-24.59,4.74-37.01,8.4-13.68,17.07-25.94,33.93-35.58,55.22,14.08-2.11,27.41-3.98,41.81-3.87ZM380.21,287.33l-.1,2.93-12.11,1.67c-14.31,1.97-28.44,2.65-43.78,4.73l9.9,23.68c3.19,7.63,5.17,16.19,11.96,21.87l.49-14.76,9.36,16.82,2.37-11.51,9.84,11.79-3.78-21.59,62.27-2.16-21.01-76.69,37.86-7.34,64.98-11.62,3.7-47.87,8.84-86.9-174.5,95.84c-4.96,2.73-8.94,5.16-13.83,8.47l47.52,92.64ZM106.84,481.37c.13,1.58,3.78,4.46,4.88,3.96l6.77-10.2c-1.85-13.17-2.92-26.28-2.37-39.91-2.56-5.08-7.33-9.34-9.93-13.82-6.42-11.06-13.95-22.08-15.07-35.25,5.5,8.31,10.37,15.27,15.97,21.93,3.07,3.65,5.07,8.35,9.61,12.27l2.31-12.95c3.12-17.45,14.26-56.06,33.06-66.67-20.26,40.68-29.97,91.65-21.65,136.46l-4.72,7.39c1.73,2.06,4.58,1.67,7.06.75l2.67-.99c.53-.2.66,1.72.91,2.34l1.4,3.46c.85,2.1,8.33-3.67,10.39-1.46,1.38,1.48,2.66,2.95,3.58,3.62,1.86,1.35,5.69-3.94,7.86-3.89,1.07.03,2.48,1.39,4.51,3.09,4.18-3.55,8.27-8.42,11.93-13.57,20.84-29.25,34.67-62.04,42.73-96.99,1.18,8.2.65,15.46.54,23.93,5.25-4.59,8.41-11.5,16.82-12.78-9.68,11.66-16.99,22.9-21.25,36.07-2.71,8.39-8.89,16.05-10.61,25.51-.83,4.57,4.58,9.42,7.9,12.41,10.07,9.05,22.24,12.56,35.43,16.11-12.44,2.9-24.18.6-36.31-1.92-3.62.82-7.79,3.98-8.51,8.55l9.17-4.23-4.34,5.93c-.45.61-.78,2.61-.63,3.3.96,4.38,10.68-7.47,15.88-6.3-2.62,2.67-4.89,4.58-7.27,8.15,23.65.14,45.63-2.21,68.28-6.5,2.64-.5,5.27-2.08,5.27-5.04l-15.29-3.62c13.98-3.83,26.28-11.53,35.84-22.61,5.51-6.38,8.12-13.37,10.37-20.73,4.45-14.58,3.64-30.63-2.64-46.09-8.26,4.6-30.17,17.67-37.81,9.01-5.31-6.02,6.28-19.36,10.91-25.45l12.22-16.08-11.78-15.81c-6.76,7.63-35.6,37.81-45.27,25.04-5.09-6.71,3.62-20.21,7.95-27.9,4.7-8.33,8.88-16.29,12.5-25.05l-12.06-11.56c-6.55,9.32-23.51,36.38-35.84,25.27-6.75-6.08-.01-18.2,4.03-25.95l12.12-23.22c-12.34-24.94-7.77-44.4-14.17-73.31-1.77-7.98-1.67-16.34-7.23-24.51-9.18,1.31-26.99-1.49-35.83-3.48-.42-.1-1.34-.19-2.15-.3-.58-.08-.4-1.27.01-1.58,12.77,1.87,79.39-11.12,85.04-23.85,12.62-12.02,25.78-37.04,32.65-55.89-34.89,3.6-67.24,14.81-97.23,31.17-16.29,8.88-30.45,19.19-45.75,29.7,2.21-9.89,9-14.94,15-22.47-27.09-10.43-63.79-8.65-89.67,3.12-16.48,7.5-29.78,19.72-37.05,36.3-8.32,18.97-3.74,35.99-20.32,41.34l12.35,5.53-12.34,7.17-3.83-5.91c-1.82,7.42-2.15,13.96-.97,20.92,12.57-8.41,12.91,18.97,43.4,6.65-6.38,10.15-19.14,11.14-28.09,4-2.5-2-10-8.26-12.91-3.86-.64.96-.8,3.64-.35,5.11,9.82,32.4,34.81,57.93,67.02,68.32l-.81,4.42,9.02,4.97-10.45.78c-7.25,38.65-3.98,78.82,9.54,115.96l8.18,22.47-8.56,8.32,9.78-.75,1.66,4.58,6.57-2.92ZM249.33,298.97l-11.59-13.74c-2.43,6.59-19.75,34.08-15.47,38.64,5.72,6.11,24.54-20.01,27.06-24.9ZM286.83,337.59l-15.98-17.58-20.25,38.91c-3.95,18.88,34.53-17.51,36.22-21.33ZM371.11,356.91c-1.15-1-3.3-2.71-4.01-3.64l-5.14-6.74-2.84,10.83-8.71-9.19c-3.12,1.17-4.77-.11-7.7-2.11l6.01,18.41-28.64,2.13,9.4,22.58,48.62-3.43-7.01-28.85ZM284.31,396.26c12.41.25,21.53-5.87,31.1-11.65-2.91-7.65-5.77-13.62-9.9-19.95l-13.11,17c-3.18,4.29-6.23,8.28-8.09,14.6ZM201.59,471.93l-4.18-6.97-4.66,7.27,8.84-.3Z"/>
  <path class="cls-1" d="M260.03,152.33c-2.14.02-4.49.4-6.96,1.22-22.13,7.29-44.11,12.69-66.83,17.94-4.17.97-8.47,2.34-11.25,4.69-.42.31-.59,1.5-.01,1.58.81.11,1.73.21,2.15.3-.3,2.39,1.08,4.91,3.17,7.02,10.93,11.05,25.11,17.68,39.89,20.97,6.4,28.91,1.83,48.37,14.17,73.31l-12.12,23.22c-4.04,7.75-10.78,19.87-4.03,25.95,12.33,11.11,29.29-15.95,35.84-25.27l12.06,11.56c-3.63,8.76-7.81,16.72-12.5,25.05-4.33,7.69-13.04,21.19-7.95,27.9,9.67,12.77,38.52-17.41,45.27-25.04l11.78,15.81-12.22,16.08c-4.63,6.09-16.22,19.42-10.91,25.45,7.64,8.67,29.55-4.41,37.81-9.01,6.28,15.45,7.1,31.51,2.64,46.09-1.28.51-3.09,1.47-4.41,2.61-11.45,9.89-24.63,17.37-39.7,20.03-15.39,2.72-30.92,1.24-44.66-5.69-13.17-6.65-15.28-12.39-16.42-25.96,4.26-13.17,11.57-24.41,21.25-36.07-8.41,1.28-11.57,8.19-16.82,12.78.1-8.48.63-15.74-.54-23.93-8.06,34.95-21.89,67.74-42.73,96.99-3.66,5.14-7.76,10.02-11.93,13.57-2.03-1.69-3.44-3.06-4.51-3.09-2.18-.05-6.01,5.24-7.86,3.89-.92-.67-2.2-2.15-3.58-3.62-2.06-2.21-9.55,3.56-10.39,1.46l-1.4-3.46c-.25-.62-.38-2.53-.91-2.34l-2.67.99c-2.49.92-5.33,1.32-7.06-.75l4.72-7.39c-8.32-44.81,1.39-95.78,21.65-136.46-18.8,10.61-29.94,49.22-33.06,66.67l-11.93.68c-5.61-6.66-10.47-13.62-15.97-21.93,1.12,13.17,8.66,24.19,15.07,35.25-2.39,7.35-3.19,14.11-2.4,23.47l3.06,36.51-6.57,2.92-1.66-4.58-9.78.75,8.56-8.32-8.18-22.47c-13.52-37.15-16.79-77.31-9.54-115.96l10.45-.78-9.02-4.97.81-4.42c-32.2-10.39-57.2-35.92-67.02-68.32-.45-1.47-.29-4.14.35-5.11,2.91-4.4,10.41,1.87,12.91,3.86,8.96,7.15,21.72,6.16,28.09-4-30.49,12.32-30.84-15.06-43.4-6.65-1.18-6.96-.85-13.5.97-20.92l3.83,5.91,12.34-7.17-12.35-5.53c16.58-5.35,12.01-22.37,20.32-41.34,7.27-16.58,20.57-28.81,37.05-36.3,25.88-11.77,62.57-13.55,89.67-3.12-6.01,7.53-12.79,12.58-15,22.47,15.3-10.51,29.46-20.82,45.75-29.7,29.99-16.35,62.35-27.57,97.23-31.17-6.87,18.85-20.03,43.87-32.65,55.89ZM114.24,219.12c4.24-7.4,4.91-15.6.83-23.16-3.04-5.63-9.41-10.63-17.06-11.61-9.69-1.24-18.82,2.74-23.89,10.37s-6.31,17.5-1.23,25.98c4.46,7.44,13.04,11.48,21.42,11.06,8.03-.4,15.49-4.89,19.93-12.64ZM109.48,297.11c15.22,5.2,31.12-.11,39.44-12.46s7.4-28.87-1.76-40.33c-9.48-11.87-25.4-15.33-39.82-9.52-12.02,4.84-19.44,16.3-20.06,29.39-.7,14.88,7.69,27.97,22.2,32.92Z"/>
  <path class="cls-7" d="M512.17,177.28c-.62.04-2.77.16-3.62.44l-80.88,26.1-60.31,19.9,24.64,43.53c-1.67-.11-9.95,5.29-10.68,7.01-1.22,2.9,5.21,10.14-1.11,13.08l-47.52-92.64c4.89-3.31,8.87-5.74,13.83-8.47l174.5-95.84-8.84,86.9Z"/>
  <path class="cls-9" d="M512.17,177.28l-3.7,47.87-64.98,11.62-37.86,7.34,21.01,76.69-62.27,2.16,3.78,21.59-9.84-11.79-2.37,11.51-9.36-16.82-.49,14.76c-6.79-5.68-8.77-14.24-11.96-21.87l76.09-18.55c-4.67-12.4-11.92-23.44-18.21-34.55l-24.64-43.53,60.31-19.9,80.88-26.1c.84-.27,3-.39,3.62-.44Z"/>
  <path class="cls-4" d="M320.03,437.17c-2.25,7.36-4.86,14.35-10.37,20.73-9.56,11.08-21.86,18.78-35.84,22.61l15.29,3.62c0,2.96-2.63,4.54-5.27,5.04-22.65,4.29-44.63,6.63-68.28,6.5,2.38-3.57,4.65-5.48,7.27-8.15-5.2-1.17-14.92,10.68-15.88,6.3-.15-.68.19-2.69.63-3.3l4.34-5.93-9.17,4.23c.72-4.57,4.89-7.73,8.51-8.55,12.13,2.52,23.87,4.82,36.31,1.92-13.19-3.55-25.36-7.06-35.43-16.11-3.32-2.98-8.73-7.84-7.9-12.41,1.72-9.47,7.9-17.12,10.61-25.51,1.14,13.57,3.25,19.31,16.42,25.96,13.74,6.93,29.27,8.41,44.66,5.69,15.07-2.66,28.25-10.14,39.7-20.03,1.32-1.14,3.13-2.11,4.41-2.61Z"/>
  <path class="cls-3" d="M160.88,56.6c-4.52,17.12-19.66,40.85-29.78,56.69-.41.64-.91,2.55-1,3.06-14.4-.11-27.73,1.76-41.81,3.87,9.64-21.29,21.9-38.15,35.58-55.22,12.42-3.66,24.49-7.4,37.01-8.4Z"/>
  <path class="cls-16" d="M392,267.24c6.29,11.11,13.54,22.15,18.21,34.55l-76.09,18.55-9.9-23.68c15.34-2.08,29.48-2.76,43.78-4.73,2.75,4.26,8.69,4.18,12.61.87.34-.29,1.43-1.52,1.06-1.71l-1.55-.82.1-2.93c6.33-2.94-.1-10.18,1.11-13.08.72-1.72,9.01-7.12,10.68-7.01Z"/>
  <path class="cls-11" d="M371.11,356.91l7.01,28.85-48.62,3.43-9.4-22.58,28.64-2.13-6.01-18.41c2.93,2,4.58,3.28,7.7,2.11l8.71,9.19,2.84-10.83,5.14,6.74c.71.93,2.86,2.63,4.01,3.64Z"/>
  <path class="cls-10" d="M130.1,116.35c.09-.5.59-2.42,1-3.06,10.12-15.84,25.26-39.57,29.78-56.69,6-.48,11.14-.45,17.05.3-10.76,22.42-24.04,41.27-39.16,60.05-3.11-.06-6.02-.25-8.67-.6Z"/>
  <path class="cls-19" d="M286.83,337.59c-1.7,3.82-40.17,40.21-36.22,21.33l20.25-38.91,15.98,17.58Z"/>
  <path class="cls-8" d="M106.84,481.37l-3.06-36.51c-.78-9.36.01-16.12,2.4-23.47,2.6,4.48,7.37,8.74,9.93,13.82-.55,13.63.52,26.74,2.37,39.91l-6.77,10.2c-1.11.5-4.75-2.38-4.88-3.96Z"/>
  <path class="cls-21" d="M220.19,206.05c-14.78-3.29-28.96-9.92-39.89-20.97-2.09-2.11-3.47-4.63-3.17-7.02,8.84,1.99,26.65,4.79,35.83,3.48,5.56,8.17,5.46,16.53,7.23,24.51Z"/>
  <path class="cls-20" d="M249.33,298.97c-2.52,4.89-21.34,31.01-27.06,24.9-4.28-4.57,13.05-32.06,15.47-38.64l11.59,13.74Z"/>
  <path class="cls-14" d="M284.31,396.26c1.86-6.33,4.91-10.31,8.09-14.6l13.11-17c4.13,6.33,6.99,12.3,9.9,19.95-9.58,5.78-18.69,11.9-31.1,11.65Z"/>
  <path class="cls-2" d="M260.03,152.33c-5.66,12.73-72.27,25.72-85.04,23.85,2.78-2.35,7.08-3.72,11.25-4.69,22.71-5.25,44.69-10.66,66.83-17.94,2.48-.82,4.82-1.19,6.96-1.22Z"/>
  <path class="cls-12" d="M119.01,407.39l-2.31,12.95c-4.55-3.92-6.54-8.62-9.61-12.27l11.93-.68Z"/>
  <path class="cls-7" d="M380.11,290.26l1.55.82c.37.2-.72,1.43-1.06,1.71-3.91,3.32-9.85,3.4-12.61-.87l12.11-1.67Z"/>
  <polygon class="cls-6" points="201.59 471.93 192.75 472.23 197.42 464.96 201.59 471.93"/>
  <path class="cls-5" d="M114.24,219.12c-4.44,7.75-11.9,12.24-19.93,12.64-8.39.42-16.96-3.62-21.42-11.06-5.09-8.48-3.93-18.24,1.23-25.98s14.2-11.61,23.89-10.37c7.65.98,14.02,5.98,17.06,11.61,4.08,7.56,3.41,15.75-.83,23.16ZM94.64,203.48c3.54-3.5,4.14-8.19,1.67-11.27s-6.9-3.91-10.64-2.31c-3.39,1.45-6.29,5-6.26,8.01.03,3.61,2.43,6.94,4.79,7.82,3.63,1.35,7.82.34,10.44-2.25Z"/>
  <path class="cls-13" d="M109.48,297.11c-14.51-4.96-22.9-18.04-22.2-32.92.62-13.09,8.04-24.55,20.06-29.39,14.42-5.81,30.34-2.35,39.82,9.52,9.16,11.46,10.22,27.78,1.76,40.33s-24.22,17.66-39.44,12.46ZM148.12,259.95c-2.25-10.43-10.1-17.78-18.46-20.49-10.15-3.3-21.1-1.3-28.2,5.96-12.45,12.74-10.6,32.87,4.08,42.46,9.61,6.29,21.55,6.65,31.23.07,8.32-5.65,13.83-16.51,11.35-28Z"/>
  <path class="cls-15" d="M94.64,203.48c-2.62,2.59-6.81,3.6-10.44,2.25-2.36-.88-4.76-4.21-4.79-7.82-.02-3.01,2.87-6.56,6.26-8.01,3.74-1.6,8.24-.69,10.64,2.31s1.86,7.77-1.67,11.27Z"/>
  <path class="cls-18" d="M148.12,259.95c2.48,11.5-3.03,22.35-11.35,28-9.69,6.58-21.62,6.21-31.23-.07-14.67-9.6-16.53-29.73-4.08-42.46,7.1-7.26,18.05-9.26,28.2-5.96,8.36,2.71,16.21,10.06,18.46,20.49Z"/>
</svg>